<svg xmlns="http://www.w3.org/2000/svg" width="100%" height="182" viewBox="0 0 1920 182" preserveAspectRatio="none">
  <path d="M1921.91,916.348c0.33,39.216-.34,79.431,0,118.642Q957.95,1035.5-6,1035V853c40.431,10.8,81,19.794,122.5,27.149,62.957,11.157,117.371,15.375,180.742,21.116,79.864,7.236,165.843,26.989,255.045,42.232,109.142,18.65,243.949,40.091,308.265,44.243,137.637,8.886,313.056-2.783,504.066-36.2,127.4-22.286,223.4-43.261,354.45-45.248A1569.414,1569.414,0,0,1,1921.91,916.348Z" transform="translate(0 -853)"/>
</svg>
