<svg xmlns="http://www.w3.org/2000/svg" width="167" height="58" viewBox="0 0 167 58">
  <g fill="none" fill-rule="evenodd">
    <rect width="167" height="58" fill="#F23B46"/>
    <path fill="#FFF" d="M39.392,36 L39.392,24.96 L43.792,24.96 C45.968,24.96 47.264,26.08 47.264,27.936 C47.264,29.232 46.352,30 45.648,30.208 L45.648,30.256 C46.832,30.384 47.808,31.44 47.808,32.928 C47.808,34.864 46.432,36 44.336,36 L39.392,36 Z M41.12,29.648 L43.664,29.648 C44.688,29.648 45.568,29.056 45.568,28 C45.568,26.944 44.896,26.448 43.776,26.448 L41.12,26.448 L41.12,29.648 Z M41.12,34.416 L44.16,34.416 C45.472,34.416 46.08,33.76 46.08,32.736 C46.08,31.664 45.2,31.072 44.16,31.072 L41.12,31.072 L41.12,34.416 Z M56.464,27.808 L56.464,36 L54.816,36 L54.816,34.848 L54.688,34.848 C54.192,35.68 53.36,36.16 52.304,36.16 C50.544,36.16 49.536,34.944 49.536,33.152 L49.536,27.808 L51.2,27.808 L51.2,32.832 C51.2,34.032 51.808,34.608 52.8,34.608 C54.016,34.608 54.8,33.744 54.8,32.56 L54.8,27.808 L56.464,27.808 Z M61.136,36 C59.776,36 59.088,35.264 59.088,33.856 L59.088,28.992 L57.888,28.992 L57.888,27.808 L59.088,27.808 L59.088,24.96 L60.752,24.96 L60.752,27.808 L62.752,27.808 L62.752,28.992 L60.752,28.992 L60.752,33.472 C60.752,34.352 61.024,34.672 61.776,34.672 L62.624,34.672 L62.624,36 L61.136,36 Z M66.624,36 C65.264,36 64.576,35.264 64.576,33.856 L64.576,28.992 L63.376,28.992 L63.376,27.808 L64.576,27.808 L64.576,24.96 L66.24,24.96 L66.24,27.808 L68.24,27.808 L68.24,28.992 L66.24,28.992 L66.24,33.472 C66.24,34.352 66.512,34.672 67.264,34.672 L68.112,34.672 L68.112,36 L66.624,36 Z M73.232,36.176 C70.928,36.176 69.248,34.688 69.248,31.936 C69.248,29.136 70.928,27.648 73.232,27.648 C75.52,27.648 77.216,29.136 77.216,31.936 C77.216,34.688 75.52,36.176 73.232,36.176 Z M73.248,34.736 C74.64,34.736 75.584,33.872 75.584,31.936 C75.584,29.952 74.64,29.088 73.248,29.088 C71.856,29.088 70.928,29.952 70.928,31.936 C70.928,33.872 71.856,34.736 73.248,34.736 Z M79.024,36 L79.024,27.808 L80.672,27.808 L80.672,28.96 L80.752,28.96 C81.232,28.208 82.048,27.648 83.184,27.648 C84.88,27.648 85.952,28.816 85.952,30.64 L85.952,36 L84.288,36 L84.288,30.896 C84.288,29.616 83.696,29.072 82.736,29.072 C81.536,29.072 80.688,29.904 80.688,31.168 L80.688,36 L79.024,36 Z M92.096,36 L92.096,24.96 L93.824,24.96 L93.824,34.496 L98.544,34.496 L98.544,36 L92.096,36 Z M102.928,27.648 C104.8,27.648 106.352,28.48 106.352,30.256 L106.352,36 L104.832,36 L104.832,35.008 C104.128,35.696 102.928,36.176 102.048,36.176 C100.4,36.176 99.344,35.28 99.344,33.856 C99.344,32.816 99.904,32.128 100.848,31.664 C101.792,31.2 103.168,30.88 104.832,30.4 C104.816,29.424 104.16,29.024 103.008,29.024 C101.936,29.024 101.296,29.376 100.72,30.112 L99.536,29.296 C100.32,28.256 101.328,27.648 102.928,27.648 Z M102.16,34.736 C103.184,34.736 104.096,34.288 104.832,33.376 L104.832,31.68 C103.744,32.032 102.608,32.384 101.968,32.688 C101.424,32.944 101.104,33.28 101.104,33.776 C101.104,34.4 101.552,34.736 102.16,34.736 Z M112.88,27.648 C115.264,27.648 116.432,29.456 116.432,31.904 C116.432,34.368 115.248,36.176 112.864,36.176 C111.616,36.176 110.72,35.648 110.192,34.96 L110.144,34.96 L110.144,36 L108.512,36 L108.512,24.96 L110.176,24.96 L110.176,28.88 L110.192,28.88 C110.752,28.176 111.632,27.648 112.88,27.648 Z M112.384,34.736 C113.968,34.736 114.752,33.728 114.752,31.888 C114.752,30.128 113.968,29.104 112.384,29.104 C110.992,29.104 110.112,30.192 110.112,31.888 C110.112,33.664 110.992,34.736 112.384,34.736 Z M124.992,31.76 C124.992,32.032 124.976,32.256 124.944,32.384 L119.312,32.384 C119.424,33.904 120.224,34.72 121.664,34.72 C122.4,34.72 123.056,34.496 123.68,33.936 L124.752,34.88 C123.792,35.808 122.8,36.16 121.632,36.16 C119.072,36.16 117.648,34.32 117.648,31.952 C117.648,29.616 118.928,27.648 121.424,27.648 C123.888,27.648 124.992,29.616 124.992,31.76 Z M121.392,29.072 C120.224,29.072 119.456,29.792 119.312,31.104 L123.344,31.12 C123.28,29.968 122.672,29.072 121.392,29.072 Z M126.832,36 L126.832,24.96 L128.512,24.96 L128.512,36 L126.832,36 Z"/>
  </g>
</svg>
