<svg xmlns="http://www.w3.org/2000/svg" width="91" height="24" viewBox="0 0 91 24">
  <g fill="none" fill-rule="evenodd">
    <path fill="#F23B46" d="M0.392,12 L0.392,0.96 L4.792,0.96 C6.968,0.96 8.264,2.08 8.264,3.936 C8.264,5.232 7.352,6 6.648,6.208 L6.648,6.256 C7.832,6.384 8.808,7.44 8.808,8.928 C8.808,10.864 7.432,12 5.336,12 L0.392,12 Z M2.12,5.648 L4.664,5.648 C5.688,5.648 6.568,5.056 6.568,4 C6.568,2.944 5.896,2.448 4.776,2.448 L2.12,2.448 L2.12,5.648 Z M2.12,10.416 L5.16,10.416 C6.472,10.416 7.08,9.76 7.08,8.736 C7.08,7.664 6.2,7.072 5.16,7.072 L2.12,7.072 L2.12,10.416 Z M17.464,3.808 L17.464,12 L15.816,12 L15.816,10.848 L15.688,10.848 C15.192,11.68 14.36,12.16 13.304,12.16 C11.544,12.16 10.536,10.944 10.536,9.152 L10.536,3.808 L12.2,3.808 L12.2,8.832 C12.2,10.032 12.808,10.608 13.8,10.608 C15.016,10.608 15.8,9.744 15.8,8.56 L15.8,3.808 L17.464,3.808 Z M22.136,12 C20.776,12 20.088,11.264 20.088,9.856 L20.088,4.992 L18.888,4.992 L18.888,3.808 L20.088,3.808 L20.088,0.96 L21.752,0.96 L21.752,3.808 L23.752,3.808 L23.752,4.992 L21.752,4.992 L21.752,9.472 C21.752,10.352 22.024,10.672 22.776,10.672 L23.624,10.672 L23.624,12 L22.136,12 Z M27.624,12 C26.264,12 25.576,11.264 25.576,9.856 L25.576,4.992 L24.376,4.992 L24.376,3.808 L25.576,3.808 L25.576,0.96 L27.24,0.96 L27.24,3.808 L29.24,3.808 L29.24,4.992 L27.24,4.992 L27.24,9.472 C27.24,10.352 27.512,10.672 28.264,10.672 L29.112,10.672 L29.112,12 L27.624,12 Z M34.232,12.176 C31.928,12.176 30.248,10.688 30.248,7.936 C30.248,5.136 31.928,3.648 34.232,3.648 C36.52,3.648 38.216,5.136 38.216,7.936 C38.216,10.688 36.52,12.176 34.232,12.176 Z M34.248,10.736 C35.64,10.736 36.584,9.872 36.584,7.936 C36.584,5.952 35.64,5.088 34.248,5.088 C32.856,5.088 31.928,5.952 31.928,7.936 C31.928,9.872 32.856,10.736 34.248,10.736 Z M40.024,12 L40.024,3.808 L41.672,3.808 L41.672,4.96 L41.752,4.96 C42.232,4.208 43.048,3.648 44.184,3.648 C45.88,3.648 46.952,4.816 46.952,6.64 L46.952,12 L45.288,12 L45.288,6.896 C45.288,5.616 44.696,5.072 43.736,5.072 C42.536,5.072 41.688,5.904 41.688,7.168 L41.688,12 L40.024,12 Z M53.096,12 L53.096,0.96 L54.824,0.96 L54.824,10.496 L59.544,10.496 L59.544,12 L53.096,12 Z M63.928,3.648 C65.8,3.648 67.352,4.48 67.352,6.256 L67.352,12 L65.832,12 L65.832,11.008 C65.128,11.696 63.928,12.176 63.048,12.176 C61.4,12.176 60.344,11.28 60.344,9.856 C60.344,8.816 60.904,8.128 61.848,7.664 C62.792,7.2 64.168,6.88 65.832,6.4 C65.816,5.424 65.16,5.024 64.008,5.024 C62.936,5.024 62.296,5.376 61.72,6.112 L60.536,5.296 C61.32,4.256 62.328,3.648 63.928,3.648 Z M63.16,10.736 C64.184,10.736 65.096,10.288 65.832,9.376 L65.832,7.68 C64.744,8.032 63.608,8.384 62.968,8.688 C62.424,8.944 62.104,9.28 62.104,9.776 C62.104,10.4 62.552,10.736 63.16,10.736 Z M73.88,3.648 C76.264,3.648 77.432,5.456 77.432,7.904 C77.432,10.368 76.248,12.176 73.864,12.176 C72.616,12.176 71.72,11.648 71.192,10.96 L71.144,10.96 L71.144,12 L69.512,12 L69.512,0.96 L71.176,0.96 L71.176,4.88 L71.192,4.88 C71.752,4.176 72.632,3.648 73.88,3.648 Z M73.384,10.736 C74.968,10.736 75.752,9.728 75.752,7.888 C75.752,6.128 74.968,5.104 73.384,5.104 C71.992,5.104 71.112,6.192 71.112,7.888 C71.112,9.664 71.992,10.736 73.384,10.736 Z M85.992,7.76 C85.992,8.032 85.976,8.256 85.944,8.384 L80.312,8.384 C80.424,9.904 81.224,10.72 82.664,10.72 C83.4,10.72 84.056,10.496 84.68,9.936 L85.752,10.88 C84.792,11.808 83.8,12.16 82.632,12.16 C80.072,12.16 78.648,10.32 78.648,7.952 C78.648,5.616 79.928,3.648 82.424,3.648 C84.888,3.648 85.992,5.616 85.992,7.76 Z M82.392,5.072 C81.224,5.072 80.456,5.792 80.312,7.104 L84.344,7.12 C84.28,5.968 83.672,5.072 82.392,5.072 Z M87.832,12 L87.832,0.96 L89.512,0.96 L89.512,12 L87.832,12 Z"/>
    <rect width="90" height="1" x="1" y="23" fill="#EFBDC0"/>
  </g>
</svg>
