<svg xmlns="http://www.w3.org/2000/svg" width="21" height="22" viewBox="0 0 21 22">
  <path fill="#FFF" fill-rule="evenodd" d="M398.4,76.475 L407.775,67.1 L406.3,65.575 L398.4,73.5 L394.7,69.775 L393.225,71.25 L398.4,76.475 Z M400.5,60.85 C402.40001,60.85 404.158325,61.3249952 405.775,62.275 C407.341675,63.1750045 408.574995,64.4083255 409.475,65.975 C410.425005,67.5916747 410.9,69.3499905 410.9,71.25 C410.9,73.1500095 410.425005,74.9083252 409.475,76.525 C408.574995,78.0916745 407.341675,79.3249955 405.775,80.225 C404.158325,81.1750047 402.40001,81.65 400.5,81.65 C398.59999,81.65 396.841675,81.1750047 395.225,80.225 C393.658325,79.3083287 392.425005,78.0666745 391.525,76.5 C390.574995,74.8833252 390.1,73.1333427 390.1,71.25 C390.1,69.3666573 390.574995,67.6166747 391.525,66 C392.441671,64.4333255 393.683326,63.1916712 395.25,62.275 C396.866675,61.3249952 398.616657,60.85 400.5,60.85 Z" transform="translate(-390 -60)"/>
</svg>
