<?xml version="1.0" encoding="UTF-8"?>
<svg width="22px" height="16px" viewBox="0 0 22 16" version="1.1" xmlns="http://www.w3.org/2000/svg" xmlns:xlink="http://www.w3.org/1999/xlink">
    <!-- Generator: Sketch 51.2 (57519) - http://www.bohemiancoding.com/sketch -->
    <title>cloud_download - material</title>
    <desc>Created with Sketch.</desc>
    <defs></defs>
    <g id="Page-1" stroke="none" stroke-width="1" fill="none" fill-rule="evenodd">
        <g id="Dashboard---Import-Panel---Final" transform="translate(-766.000000, -796.000000)" fill="#FFFFFF">
            <g id="Group-7" transform="translate(646.000000, 787.000000)">
                <path d="M135.598,18.202 L132.848,18.202 L132.848,14.55 L129.152,14.55 L129.152,18.202 L126.402,18.202 L131,22.8 L135.598,18.202 Z M137.754,15.496 C138.531337,15.554667 139.242663,15.7929979 139.888,16.211 C140.533337,16.6290021 141.046665,17.17533 141.428,17.85 C141.809335,18.52467 142,19.257996 142,20.05 C142,20.8860042 141.794669,21.6559965 141.384,22.36 C140.973331,23.0640035 140.416004,23.6213313 139.712,24.032 C139.007996,24.4426687 138.238004,24.648 137.402,24.648 L125.5,24.648 C124.502662,24.648 123.582338,24.4023358 122.739,23.911 C121.895662,23.4196642 121.228336,22.7523376 120.737,21.909 C120.245664,21.0656625 120,20.1453383 120,19.148 C120,18.2239954 120.216331,17.3623373 120.649,16.563 C121.081669,15.7636627 121.671996,15.1110025 122.42,14.605 C123.168004,14.0989975 123.996662,13.7946672 124.906,13.692 C125.49267,12.562661 126.321328,11.66067 127.392,10.986 C128.492006,10.2966632 129.69466,9.952 131,9.952 C132.100006,9.952 133.126662,10.1939976 134.08,10.678 C135.018671,11.1473357 135.810663,11.8036625 136.456,12.647 C137.101337,13.4903375 137.533999,14.4399947 137.754,15.496 Z" id="cloud_download---material"></path>
            </g>
        </g>
    </g>
</svg>