<?xml version="1.0" encoding="UTF-8"?>
<svg width="201px" height="191px" viewBox="0 0 201 191" version="1.1" xmlns="http://www.w3.org/2000/svg" xmlns:xlink="http://www.w3.org/1999/xlink">
    <!-- Generator: Sketch 51.2 (57519) - http://www.bohemiancoding.com/sketch -->
    <title>Shape</title>
    <desc>Created with Sketch.</desc>
    <defs></defs>
    <g id="Page-1" stroke="none" stroke-width="1" fill="none" fill-rule="evenodd" opacity="0.256808036">
        <g id="Dashboard---Welcome---Final" transform="translate(-226.000000, -477.000000)" fill="#CDD6E0" fill-rule="nonzero">
            <g id="Group-2" transform="translate(213.000000, 459.000000)">
                <g id="Group-3">
                    <g id="Shape" transform="translate(13.000000, 18.000000)">
                        <path d="M200.99951,157.704565 L100.601901,57.3069561 C115.456629,28.1097825 110.846575,-8.25885901 86.2594558,-32.3336957 C56.5499995,-62.5554348 7.8880434,-62.5554348 -22.3336957,-32.3336957 C-52.5554348,-2.1119566 -52.5554348,46.5499995 -22.3336957,76.7717386 C1.74114099,100.846575 38.1097825,105.456629 67.3069561,91.114184 L100.089619,123.897337 L125.189021,123.897337 L125.189021,148.996739 L150.288423,148.996739 L150.288423,174.096141 L167.192282,191 L189.730761,191 L200.487717,180.243043 L200.487717,157.704565 L200.99951,157.704565 Z M1.22885827,33.7444022 C-10.5526638,21.9628801 -10.5526638,2.49809765 1.22885827,-9.28293422 C13.0103804,-21.0639661 32.4751628,-21.0644563 44.2561947,-9.28293422 C56.0372265,2.49858787 56.0377168,21.9633703 44.2561947,33.7444022 C31.9628801,46.0377168 13.0103804,46.0377168 1.22885827,33.7444022 Z"></path>
                    </g>
                </g>
            </g>
        </g>
    </g>
</svg>