<svg xmlns="http://www.w3.org/2000/svg" xmlns:xlink="http://www.w3.org/1999/xlink" width="76" height="31" viewBox="0 0 76 31">
  <defs>
    <path id="ave-vc-a" d="M24.0646027,30.5767918 L21.8165749,24.2709898 L8.82083304,24.2709898 L6.5728052,30.5767918 L0,30.5767918 L11.3900077,0 L19.2474002,0 L30.6374079,30.5767918 L24.0646027,30.5767918 Z M10.7048945,18.959727 L19.9325135,18.959727 L15.3294089,5.9883959 L10.7048945,18.959727 Z M47.1602596,8.82389078 L53.6902452,8.82389078 L44.3127577,30.5767918 L38.9603105,30.5767918 L29.6898719,8.82389078 L36.1770379,8.82389078 L41.6579439,23.6996587 L47.1602596,8.82389078 Z M77,19.3829352 L76.9357706,20.8430034 L60.6215115,20.8430034 C60.7499709,22.5781657 61.3351659,23.9042047 62.3771142,24.8211604 C63.4190624,25.7381161 64.7107735,26.196587 66.252286,26.196587 C67.3656006,26.196587 68.3325997,25.9461914 69.1533124,25.4453925 C69.974025,24.9445936 70.5913344,24.2145668 71.0052591,23.2552901 L76.6574434,24.0805461 C75.9295069,26.2671327 74.6449324,27.9670019 72.8036814,29.1802048 C70.9624303,30.3934077 68.7929267,31 66.2951055,31 C62.698243,31 59.8400648,30.001944 57.7204851,28.005802 C55.6009054,26.0096601 54.5411314,23.2412009 54.5411314,19.7003413 C54.5411314,16.1876957 55.6044736,13.4192365 57.73119,11.3948805 C59.8579063,9.37052458 62.6482876,8.35836177 66.1024174,8.35836177 C69.3852682,8.35836177 72.0186459,9.28235709 74.0026296,11.1303754 C75.9866132,12.9783938 76.9857267,15.7292195 77,19.3829352 Z M66.145237,12.6750853 C63.1478516,12.6750853 61.3637203,14.0716584 60.7927898,16.8648464 L70.8982102,16.8648464 C70.7412043,15.5105734 70.234511,14.4737237 69.3781151,13.7542662 C68.5217193,13.0348087 67.444104,12.6750853 66.145237,12.6750853 Z"/>
  </defs>
  <g fill="none" fill-rule="evenodd" transform="translate(-1)">
    <g transform="translate(0 3)">
      <use fill="#FFF" opacity=".672" xlink:href="#ave-vc-a"/>
    </g>
    <circle cx="61" cy="3" r="3" fill="#FFAC9A" fill-rule="nonzero"/>
    <circle cx="70" cy="3" r="3" fill="#FFAC9A" fill-rule="nonzero"/>
  </g>
</svg>
