<svg xmlns="http://www.w3.org/2000/svg" width="34" height="34" viewBox="0 0 34 34">
  <path fill="#FFF" d="M158,71.36 L158,68 L138,68 L138,71.36 L158,71.36 Z M151.36,81.36 L151.36,78 L138,78 L138,81.36 L151.36,81.36 Z M138,73 L138,76.36 L158,76.36 L158,73 L138,73 Z M161.36,61.36 C162.266671,61.36 163.039997,61.6799968 163.68,62.32 C164.320003,62.9600032 164.64,63.7333288 164.64,64.64 L164.64,84.64 C164.64,85.5466712 164.320003,86.33333 163.68,87 C163.039997,87.66667 162.266671,88 161.36,88 L138,88 L131.36,94.64 L131.36,64.64 C131.36,63.7333288 131.679997,62.9600032 132.32,62.32 C132.960003,61.6799968 133.733329,61.36 134.64,61.36 L161.36,61.36 Z" transform="translate(-131 -61)"/>
</svg>
