<svg xmlns="http://www.w3.org/2000/svg" width="31" height="30" viewBox="0 0 31 30">
  <path fill="#FFF" d="M43.88,35.36 L43.88,42.4 L49.64,45.92 L48.48,47.92 L41.36,43.64 L41.36,35.36 L43.88,35.36 Z M58,38.88 L46.68,38.88 L51.28,34.2 C49.7866592,32.7066592 48.04001,31.6866694 46.04,31.14 C44.03999,30.5933306 42.0533432,30.5599976 40.08,31.04 C38.0266564,31.5466692 36.2600074,32.5466592 34.78,34.04 C33.2999926,35.5333408 32.3066692,37.2599902 31.8,39.22 C31.2933308,41.1800098 31.2933308,43.1399902 31.8,45.1 C32.3066692,47.0600098 33.3066592,48.7866592 34.8,50.28 C36.2933408,51.7733408 38.0533232,52.7733308 40.08,53.28 C42.0533432,53.813336 44.0266568,53.813336 46,53.28 C48.0266768,52.7733308 49.7866592,51.7733408 51.28,50.28 C52.4266724,49.1333276 53.2733306,47.9000066 53.82,46.58 C54.3666694,45.2599934 54.64,43.7866748 54.64,42.16 L58,42.16 C58,43.9200088 57.6400036,45.7066576 56.92,47.52 C56.1466628,49.5466768 55.0533404,51.2533264 53.64,52.64 C51.7199904,54.5333428 49.4400132,55.81333 46.8,56.48 C44.266654,57.1200032 41.733346,57.1200032 39.2,56.48 C36.5599868,55.81333 34.2800096,54.5333428 32.36,52.64 C30.4399975,50.7466572 29.1333368,48.5066796 28.4399975,45.92 C27.77333,43.4399876 27.77333,40.933346 28.4399975,38.4 C29.1333368,35.8133204 30.4399975,33.5733428 32.36,31.68 C34.2800096,29.7866572 36.5333204,28.50667 39.12,27.84 C41.6266792,27.17333 44.146654,27.17333 46.68,27.84 C49.2933464,28.50667 51.5599904,29.7866572 53.48,31.68 L58,27 L58,38.88 Z" transform="translate(-27 -27)"/>
</svg>
