<svg xmlns="http://www.w3.org/2000/svg" width="34" height="34" viewBox="0 0 34 34">
  <path fill="#FFF" d="M47.08,40.76 C47.5600024,40.2533308 47.9399986,39.6800032 48.22,39.04 C48.5000014,38.3999968 48.64,37.7200036 48.64,37 C48.64,35.799994 48.340003,34.6933384 47.74,33.68 C47.139997,32.6666616 46.3333384,31.86 45.32,31.26 C44.3066616,30.659997 43.200006,30.36 42,30.36 C40.799994,30.36 39.6933384,30.659997 38.68,31.26 C37.6666616,31.86 36.86,32.6666616 36.26,33.68 C35.659997,34.6933384 35.36,35.799994 35.36,37 L38.64,37 C38.64,36.0933288 38.97333,35.30667 39.64,34.64 C40.30667,33.97333 41.0933288,33.64 42,33.64 C42.9066712,33.64 43.69333,33.97333 44.36,34.64 C45.02667,35.30667 45.36,36.0799956 45.36,36.96 C45.36,37.8400044 45.02667,38.6399964 44.36,39.36 L42.32,41.44 C41.7066636,42.10667 41.2400016,42.8266628 40.92,43.6 C40.5466648,44.4266708 40.36,45.2666624 40.36,46.12 L40.36,47 L43.64,47 C43.64,45.8533276 43.8266648,44.9066704 44.2,44.16 C44.4400012,43.6799976 44.9066632,43.0666704 45.6,42.32 L47.08,40.76 Z M43.64,53.64 L43.64,50.36 L40.36,50.36 L40.36,53.64 L43.64,53.64 Z M42,25.36 C45.0400152,25.36 47.8533204,26.1199924 50.44,27.64 C52.9466792,29.0800072 54.9199928,31.0533208 56.36,33.56 C57.8800076,36.1466796 58.64,38.9599848 58.64,42 C58.64,45.0400152 57.8800076,47.8533204 56.36,50.44 C54.9199928,52.9466792 52.9466792,54.9199928 50.44,56.36 C47.8533204,57.8800076 45.0400152,58.64 42,58.64 C38.9599848,58.64 36.1466796,57.8800076 33.56,56.36 C31.0533208,54.893326 29.0800072,52.9066792 27.64,50.4 C26.1199924,47.8133204 25.36,45.0133484 25.36,42 C25.36,38.9866516 26.1199924,36.1866796 27.64,33.6 C29.106674,31.0933208 31.0933208,29.106674 33.6,27.64 C36.1866796,26.1199924 38.9866516,25.36 42,25.36 Z" transform="translate(-25 -25)"/>
</svg>
