<?xml version="1.0" encoding="UTF-8"?> <svg xmlns="http://www.w3.org/2000/svg" xmlns:xlink="http://www.w3.org/1999/xlink" width="68px" height="45px" viewBox="0 0 68 45"><!-- Generator: Sketch 58 (84663) - https://sketch.com --><title>Ave</title><desc>Created with Sketch.</desc><g id="Page-1" stroke="none" stroke-width="1" fill="none" fill-rule="evenodd"><g id="Desktop-HD-Copy-5" transform="translate(-689.000000, -22.000000)" fill="#BD9E6B" fill-rule="nonzero"><path d="M722.2288,40.7067693 L724.2968,40.3547693 L724.2968,40.3547693 C724.560802,40.3107691 724.804175,40.2791443 725.026925,40.2598943 L725.391301,40.237436 L725.391301,40.237436 L726.667073,40.1903551 C727.192122,40.1645801 728.000692,40.1020519 729.0928,40.0027693 C729.532803,39.9441024 729.884799,39.9221026 730.1488,39.9367693 C730.412802,39.9514361 730.530134,40.061435 730.5008,40.2667693 C730.471467,40.4721037 730.339468,40.6187689 730.1048,40.7067693 C729.870133,40.7947698 729.635468,40.8681024 729.4008,40.9267693 C728.72613,41.2201041 728.110137,41.4621017 727.5528,41.6527693 C726.995464,41.8434369 726.42347,42.0194352 725.8368,42.1807693 L723.9228,42.7087693 C723.233464,42.8994369 722.419472,43.1414345 721.4808,43.4347693 C720.864797,45.8694482 720.248803,48.1720918 719.6328,50.3427693 L719.002133,52.5476604 C718.571912,54.0403985 718.122136,55.5787614 717.6528,57.1627693 C717.418133,57.5441046 717.227468,57.7127695 717.0808,57.6687693 C716.934133,57.6247691 716.816801,57.4927704 716.7288,57.2727693 L716.6023,56.9372694 L716.6023,56.9372694 L716.4868,56.5907693 C716.413467,56.3561015 716.332801,56.2387693 716.2448,56.2387693 C716.215467,55.3880984 716.2888,54.5667733 716.4648,53.7747693 C716.640801,52.9827654 716.802133,52.2054398 716.9488,51.4427693 C717.183468,50.1227627 717.454799,48.8687753 717.7628,47.6807693 C718.070802,46.4927634 718.386132,45.3121085 718.7088,44.1387693 C716.68479,44.5787715 714.68281,45.1067662 712.7028,45.7227693 C710.72279,46.3387724 708.76481,46.9547662 706.8288,47.5707693 L706.595331,47.6533816 C706.462433,47.6982795 706.305291,47.748565 706.123903,47.8042385 L705.7288,47.9227693 C705.230131,48.0694367 704.892801,48.2014354 704.7168,48.3187693 L704.575023,48.3945471 C704.491912,48.4409914 704.390468,48.5002689 704.27069,48.5723802 L704.1448,48.6487693 C703.880799,48.8101035 703.675468,48.9641019 703.5288,49.1107693 C702.771019,50.088552 702.07945,51.0816001 701.454079,52.0899343 L701.0868,52.6967693 C700.36813,53.9141087 699.583471,55.1387632 698.7328,56.3707693 C697.823463,57.6614424 696.987471,58.9227632 696.2248,60.1547693 C695.557464,61.2327747 694.946281,62.4118274 694.391239,63.6919549 L694.1568,64.2467693 C694.039466,64.5107706 693.929468,64.7821013 693.8268,65.0607693 C693.724133,65.3394374 693.584801,65.581435 693.4088,65.7867693 C693.2328,65.9921037 693.012802,66.1607687 692.7488,66.2927693 C692.484799,66.42477 692.162136,66.4907693 691.7808,66.4907693 C691.194131,66.5201028 690.695469,66.329438 690.2848,65.9187693 C689.874132,65.5081006 689.595468,65.097438 689.4488,64.6867693 C689.390133,64.481435 689.390133,64.3054367 689.4488,64.1587693 C689.507467,64.0121019 689.595466,63.87277 689.7128,63.7407693 C689.791023,63.6527689 689.875763,63.5712878 689.967022,63.496325 L690.1088,63.3887693 C690.255468,63.2861021 690.3728,63.1907698 690.4608,63.1027693 C690.783469,62.6921006 691.106132,62.2594383 691.4288,61.8047693 C691.751469,61.3501004 692.059466,60.888105 692.3528,60.4187693 C693.467473,58.5707601 694.633461,56.7374451 695.8508,54.9187693 C697.06814,53.1000936 698.292794,51.2814451 699.5248,49.4627693 L699.12431,49.5992595 C698.813017,49.7010282 698.557849,49.7728644 698.3588,49.8147693 L697.9628,49.8917694 C697.838134,49.9137693 697.720801,49.9321026 697.6108,49.9467693 L696.9288,50.0347693 L696.9288,50.0347693 C696.694133,50.0641028 696.356803,50.1374354 695.9168,50.2547693 C695.652799,50.3427698 695.403468,50.4381021 695.1688,50.5407693 C694.934133,50.6434365 694.684802,50.6947693 694.4208,50.6947693 C693.591082,50.8204842 692.863741,50.9623606 692.23876,51.1204017 L689.7568,51.7947693 C689.375465,51.9121032 689.140801,51.9194365 689.0528,51.8167693 C688.9648,51.7141021 688.9868,51.5674369 689.1188,51.3767693 C689.250801,51.1861017 689.463466,50.9734372 689.7568,50.7387693 C690.050135,50.5041015 690.402132,50.2987702 690.8128,50.1227693 C691.575471,49.800101 692.36013,49.5214372 693.1668,49.2867693 C693.973471,49.0521015 694.75813,48.8027706 695.5208,48.5387693 C696.547472,48.1281006 697.588795,47.7467711 698.6448,47.3947693 C699.700806,47.0427676 700.756795,46.7201041 701.8128,46.4267693 C703.279474,44.4614262 704.768126,42.5034457 706.2788,40.5527693 C707.789475,38.6020929 709.351459,36.6807788 710.9648,34.7887693 C712.578142,32.8967599 714.242792,31.0634449 715.9588,29.2887693 C717.674809,27.5140938 719.486124,25.8347772 721.3928,24.2507693 C721.920803,23.7814336 722.56613,23.312105 723.3288,22.8427693 C724.091471,22.3734336 724.898129,22.0947698 725.7488,22.0067693 C726.130136,21.9774358 726.445466,22.0434352 726.6948,22.2047693 C726.944135,22.3661035 727.1568,22.578768 727.3328,22.8427693 C727.391467,22.9014363 727.4208,22.9601024 727.4208,23.0187693 C727.4208,23.0774363 727.450133,23.1507689 727.5088,23.2387693 C727.626134,23.4734372 727.7288,23.6274356 727.8168,23.7007693 C727.904801,23.774103 727.919467,24.0014341 727.8608,24.3827693 C727.802133,24.7347711 727.714134,25.0941008 727.5968,25.4607693 C727.479466,25.8274378 727.362134,26.1867676 727.2448,26.5387693 C726.892799,27.7707755 726.504136,28.9734301 726.0788,30.1467693 C725.653465,31.3201085 725.220803,32.4934301 724.7808,33.6667693 C724.340798,34.8401085 723.900803,36.0060969 723.4608,37.1647693 C723.020798,38.3234418 722.610136,39.5040966 722.2288,40.7067693 Z M721.67352,34.2493311 L721.9648,33.4907693 C722.46347,32.2294297 722.932798,30.8801098 723.3728,29.4427693 C723.812803,28.0054288 724.223465,26.5974429 724.6048,25.2187693 L724.5608,25.2187693 C724.4728,25.2187693 724.4288,25.2481024 724.4288,25.3067693 L723.251801,26.3847692 L723.251801,26.3847692 L722.0088,27.5067693 C721.158129,28.2694398 720.307471,29.0467654 719.4568,29.8387693 C718.606129,30.6307733 717.770138,31.4300986 716.9488,32.2367693 C716.127463,33.04344 715.364804,33.8280988 714.6608,34.5907693 C713.282127,36.1161103 711.910807,37.6634281 710.5468,39.2327693 C709.182794,40.8021105 707.943473,42.5107601 706.8288,44.3587693 C708.735477,43.7720997 710.803456,43.214772 713.0328,42.6867693 C715.262145,42.1587667 717.418123,41.689438 719.5008,41.2787693 C719.911469,39.9294292 720.300132,38.6094424 720.6668,37.3187693 C720.960135,36.2862308 721.295706,35.2630913 721.67352,34.2493311 L721.67352,34.2493311 Z M742.1168,38.5507693 C742.175467,38.5214358 742.2268,38.4994361 742.2708,38.4847693 C742.314801,38.4701026 742.307467,38.5067689 742.2488,38.5947693 C742.272267,38.6417029 742.3192,38.6557829 742.3896,38.6370094 L742.4468,38.6167693 C742.549468,38.5727691 742.630133,38.5581026 742.6888,38.5727693 C742.747467,38.5874361 742.740134,38.6827684 742.6668,38.8587693 L742.556801,39.0934358 C742.459023,39.2889908 742.312357,39.5627676 742.1168,39.9147693 C742.146134,39.9441028 742.014135,40.1494341 741.7208,40.5307693 C741.427466,40.9121046 741.068136,41.3447669 740.6428,41.8287693 L739.056355,43.6401035 C738.847763,43.87477 738.694579,44.0409911 738.5968,44.1387693 C738.4208,44.3147702 738.182926,44.5773932 737.883176,44.9266433 L737.5628,45.3047693 C737.108131,45.8474387 736.594803,46.419433 736.0228,47.0207693 C735.450798,47.6221057 734.842137,48.1867667 734.1968,48.7147693 C733.551464,49.242772 732.928137,49.5947684 732.3268,49.7707693 C731.725464,49.9467702 731.17547,49.8807709 730.6768,49.5727693 C730.178131,49.2647678 729.782135,48.5827746 729.4888,47.5267693 C729.547467,47.4094354 729.547467,47.2921032 729.4888,47.1747693 C729.430133,47.0574354 729.4008,46.9694363 729.4008,46.9107693 C729.430134,46.5001006 729.4888,46.1114378 729.5768,45.7447693 C729.664801,45.3781008 729.7528,44.989438 729.8408,44.5787693 C729.8408,44.373435 729.892133,44.1754369 729.9948,43.9847693 L730.1488,43.7042693 L730.1488,43.7042693 L730.3028,43.4347693 C730.405468,43.2587684 730.5008,43.0827702 730.5888,42.9067693 C730.676801,42.7307684 730.7208,42.5254372 730.7208,42.2907693 C730.838134,42.085435 730.933467,41.8874369 731.0068,41.6967693 C731.080134,41.5061017 731.146133,41.2934372 731.2048,41.0587693 C731.380801,40.8827684 731.564133,40.6627706 731.7548,40.3987693 C731.924283,40.1641015 732.180675,40.1032622 732.523985,40.2162505 L732.6568,40.2667693 C732.744801,40.2961028 732.818133,40.3401024 732.8768,40.3987693 C732.935467,40.4574363 733.0088,40.5161024 733.0968,40.5747693 L733.298925,40.6820193 C733.314509,40.691186 733.3278,40.699436 733.3388,40.7067693 C733.382801,40.7361028 733.419467,40.8241019 733.4488,40.9707693 C733.4488,41.0294363 733.439023,41.0815842 733.419467,41.1272137 L733.3828,41.1907693 C733.3388,41.2494363 733.3168,41.3374354 733.3168,41.4547693 C733.3168,41.4841028 733.272801,41.4987693 733.1848,41.4987693 L732.8328,42.3787693 C732.813245,42.4178806 732.796948,42.4439546 732.783911,42.4569916 L732.7668,42.4667693 C732.752134,42.4667693 732.7448,42.4961024 732.7448,42.5547693 C732.686133,42.6427698 732.6568,42.7381021 732.6568,42.8407693 C732.6568,42.9434365 732.642134,43.0241024 732.6128,43.0827693 C732.6128,43.1414363 732.598134,43.1781026 732.5688,43.1927693 C732.539467,43.2074361 732.5248,43.2294358 732.5248,43.2587693 C732.407466,43.6577047 732.261974,44.1035681 732.088321,44.5963683 L731.9528,44.9747693 C731.718133,45.6201059 731.542134,46.1921002 731.4248,46.6907693 C731.483467,46.9841041 731.769464,47.0207704 732.2828,46.8007693 C732.796136,46.5807682 733.382797,46.2507715 734.0428,45.8107693 C734.702804,45.3707671 735.340797,44.8794387 735.9568,44.3367693 C736.572803,43.7940999 737.012799,43.3321046 737.2768,42.9507693 C737.474801,42.7747684 737.6563,42.5905196 737.8213,42.3980197 L737.9808,42.2027693 C738.186135,41.938768 738.420799,41.6894372 738.6848,41.4547693 L739.3888,40.7507693 C739.740802,40.3987676 740.107465,40.0394378 740.4888,39.6727693 C740.870136,39.3061008 741.222132,39.0054372 741.5448,38.7707693 C741.867469,38.5361015 742.058133,38.4627689 742.1168,38.5507693 Z M755.36307,42.4424296 C755.383971,42.4224038 755.390548,42.4085171 755.3828,42.4007693 C755.368134,42.3861026 755.346134,42.3861026 755.3168,42.4007693 C755.287467,42.4154361 755.2728,42.4301026 755.2728,42.4447693 C755.2728,42.4500213 755.280323,42.4524522 755.295368,42.4520623 L755.36307,42.4424296 L755.36307,42.4424296 Z M755.36307,42.4424296 L755.4488,42.4227693 C755.468356,42.4227693 755.491171,42.4162509 755.517245,42.4032138 L755.5588,42.3787693 C755.602801,42.3494358 755.639467,42.3347693 755.6688,42.3347693 C755.932802,42.3347693 756.1088,42.3567691 756.1968,42.4007693 C756.284801,42.4447695 756.321467,42.5181021 756.3068,42.6207693 C756.292134,42.7234365 756.233468,42.8407687 756.1308,42.9727693 C756.028133,43.10477 755.918134,43.2587684 755.8008,43.4347693 C755.830134,43.4347693 755.793468,43.4714356 755.6908,43.5447693 C755.622356,43.5936585 755.547393,43.6425471 755.465912,43.6914359 L755.3388,43.7647693 C755.2508,43.8136585 755.169319,43.8625471 755.094356,43.9114359 L754.8328,44.0947693 C754.510132,44.3294372 754.114136,44.578768 753.6448,44.8427693 C753.175465,45.1067706 752.706136,45.3634347 752.2368,45.6127693 L751.5548,45.9702694 C751.334801,46.0839358 751.122135,46.1921021 750.9168,46.2947693 L750.313372,46.5893001 C750.187658,46.6485652 750.080801,46.6970549 749.9928,46.7347693 L746.8248,48.2307693 C746.590133,48.3774367 746.333468,48.4874356 746.0548,48.5607693 C745.776132,48.634103 745.504802,48.7147689 745.2408,48.8027693 L744.679801,48.9347692 C744.481801,48.9787691 744.272801,49.0227691 744.0528,49.0667693 C743.612798,49.1547698 743.172803,49.1914361 742.7328,49.1767693 C742.292798,49.1621026 741.874802,49.0741035 741.4788,48.9127693 C741.082798,48.7514352 740.752802,48.4801046 740.4888,48.0987693 C740.283466,47.834768 740.166134,47.5121046 740.1368,47.1307693 C740.107467,46.7494341 740.1368,46.3607713 740.2248,45.9647693 C740.312801,45.5687673 740.437466,45.1727713 740.5988,44.7767693 C740.760135,44.3807673 740.9288,44.0214376 741.1048,43.6987693 C741.251468,43.5814354 741.3688,43.4347702 741.4568,43.2587693 C741.544801,43.0827684 741.603467,42.9361032 741.6328,42.8187693 C742.248803,42.0854323 742.886797,41.3814394 743.5468,40.7067693 C744.206804,40.0320993 744.888797,39.5041046 745.5928,39.1227693 C745.915469,38.917435 746.252799,38.7414367 746.6048,38.5947693 C746.956802,38.4481019 747.279466,38.3014367 747.5728,38.1547693 C747.690134,38.0961024 747.785467,38.0374363 747.8588,37.9787693 C747.932134,37.9201024 748.042133,37.8907693 748.1888,37.8907693 C749.244806,37.8907693 749.934132,38.0741008 750.2568,38.4407693 C750.579469,38.8074378 750.7408,39.1667676 750.7408,39.5187693 C750.717334,39.6126365 750.646934,39.715889 750.529601,39.8285291 L750.4328,39.9147693 C750.2568,40.0614367 750.124801,40.2081019 750.0368,40.3547693 C749.890133,40.5014367 749.758134,40.6407687 749.6408,40.7727693 C749.523466,40.90477 749.435467,41.0294354 749.3768,41.1467693 C748.203461,42.1734411 747.03014,43.0827654 745.8568,43.8747693 C745.563466,44.1094372 745.174803,44.2707689 744.6908,44.3587693 C744.206798,44.4467698 743.71547,44.4614363 743.2168,44.4027693 C743.0408,44.5787702 742.864801,44.8061013 742.6888,45.0847693 C742.5128,45.3634374 742.373468,45.6567678 742.2708,45.9647693 C742.168133,46.2727709 742.124134,46.5807678 742.1388,46.8887693 C742.153467,47.1967709 742.278133,47.453435 742.5128,47.6587693 C743.09947,47.7174363 743.612798,47.6587702 744.0528,47.4827693 C744.492803,47.3067684 744.918132,47.1601032 745.3288,47.0427693 C745.651469,46.9547689 745.988799,46.8521032 746.3408,46.7347693 C746.692802,46.6174354 747.000799,46.5001032 747.2648,46.3827693 L748.213045,45.9373815 C748.423167,45.8404021 748.613085,45.7541983 748.7828,45.6787693 C749.046802,45.5614354 749.301023,45.4506211 749.545467,45.346325 L749.9048,45.1947693 C750.256802,45.0481019 750.623465,44.8867702 751.0048,44.7107693 L751.356801,44.5419529 C751.671086,44.386307 752.037751,44.1932467 752.4568,43.9627693 C752.926136,43.7281015 753.402798,43.4861039 753.8868,43.2367693 L754.825467,42.7478807 C754.977022,42.668029 755.126133,42.5889919 755.2728,42.5107693 L755.340596,42.4619454 C755.349357,42.4548962 755.356848,42.4483909 755.36307,42.4424296 Z M743.6568,43.6987693 C744.360804,42.8187649 745.11613,42.0121063 745.9228,41.2787693 C746.729471,40.5454323 747.660795,39.9881046 748.7168,39.6067693 C748.7168,39.6947698 748.687467,39.7387693 748.6288,39.7387693 C748.130131,40.3254389 747.572803,40.9047665 746.9568,41.4767693 C746.340797,42.0487722 745.73947,42.5694336 745.1528,43.0387693 C744.918133,43.1854367 744.676135,43.3321019 744.4268,43.4787693 C744.177466,43.6254367 743.920802,43.6987693 743.6568,43.6987693 Z" id="Ave"></path></g></g></svg> 