<?xml version="1.0" encoding="UTF-8"?> <svg xmlns="http://www.w3.org/2000/svg" width="62" height="28" viewBox="0 0 62 28"><g fill="none" fill-rule="evenodd" transform="translate(0 -7)"><path fill="#000" d="M19.7216797,34 L17.9272461,28.9072266 L7.55371094,28.9072266 L5.75927734,34 L0.512695312,34 L9.60449219,9.30517578 L15.8764648,9.30517578 L24.9682617,34 L19.7216797,34 Z M9.05761719,24.6176758 L16.4233398,24.6176758 L12.7490234,14.1416016 L9.05761719,24.6176758 Z M38.1572266,16.4316406 L43.3696289,16.4316406 L35.8842773,34 L31.6118164,34 L24.2119141,16.4316406 L29.3901367,16.4316406 L33.7651367,28.4458008 L38.1572266,16.4316406 Z M61.9760742,24.9594727 L61.9248047,26.1386719 L48.9023438,26.1386719 C49.0048833,27.5400461 49.472001,28.6109989 50.3037109,29.3515625 C51.1354208,30.0921261 52.1664978,30.4624023 53.3969727,30.4624023 C54.285649,30.4624023 55.0575325,30.2601745 55.7126465,29.8557129 C56.3677604,29.4512512 56.8605127,28.8616575 57.190918,28.0869141 L61.7026367,28.753418 C61.1215791,30.5193773 60.0961988,31.8922477 58.6264648,32.8720703 C57.1567309,33.8518929 55.4249774,34.3417969 53.4311523,34.3417969 C50.5600442,34.3417969 48.2785729,33.535734 46.5866699,31.923584 C44.8947669,30.311434 44.0488281,28.0755351 44.0488281,25.2158203 C44.0488281,22.3788921 44.8976152,20.1429932 46.5952148,18.5080566 C48.2928145,16.8731201 50.5201685,16.0556641 53.2773438,16.0556641 C55.8977996,16.0556641 57.9998293,16.8019131 59.5834961,18.2944336 C61.1671629,19.7869541 61.9646809,22.0086115 61.9760742,24.9594727 Z M53.3115234,19.5419922 C50.9189333,19.5419922 49.4947939,20.6699106 49.0390625,22.9257812 L57.1054688,22.9257812 C56.9801426,21.8320258 56.575687,20.9946318 55.8920898,20.4135742 C55.2084927,19.8325166 54.3483125,19.5419922 53.3115234,19.5419922 Z"></path><circle cx="49.5" cy="9.5" r="2.5" fill="#FFAC9A" fill-rule="nonzero"></circle><circle cx="56.5" cy="9.5" r="2.5" fill="#FFAC9A" fill-rule="nonzero"></circle></g></svg> 