<?xml version="1.0" encoding="UTF-8"?> <svg xmlns="http://www.w3.org/2000/svg" xmlns:xlink="http://www.w3.org/1999/xlink" width="68px" height="45px" viewBox="0 0 68 45"><!-- Generator: Sketch 58 (84663) - https://sketch.com --><title>Ave</title><desc>Created with Sketch.</desc><g id="Page-1" stroke="none" stroke-width="1" fill="none" fill-rule="evenodd"><g id="Desktop-HD-Copy-2" transform="translate(-66.000000, -150.000000)" fill="#E13B0F" fill-rule="nonzero"><path d="M99.152,169.112 L101.22,168.76 L101.22,168.76 C101.484001,168.716 101.727375,168.684375 101.950125,168.665125 L102.3145,168.642667 L102.3145,168.642667 L103.590273,168.595586 C104.115322,168.569811 104.923892,168.507283 106.016,168.408 C106.456002,168.349333 106.807999,168.327333 107.072,168.342 C107.336001,168.356667 107.453333,168.466666 107.424,168.672 C107.394667,168.877334 107.262668,169.024 107.028,169.112 C106.793332,169.2 106.558668,169.273333 106.324,169.332 C105.64933,169.625335 105.033336,169.867332 104.476,170.058 C103.918664,170.248668 103.34667,170.424666 102.76,170.586 L100.846,171.114 C100.156663,171.304668 99.3426714,171.546665 98.404,171.84 C97.7879969,174.274679 97.1720031,176.577322 96.556,178.748 L95.9253327,180.952891 C95.4951113,182.445629 95.0453357,183.983992 94.576,185.568 C94.3413322,185.949335 94.1506674,186.118 94.004,186.074 C93.8573326,186.03 93.7400004,185.898001 93.652,185.678 L93.5255,185.3425 L93.5255,185.3425 L93.41,184.996 C93.3366663,184.761332 93.2560004,184.644 93.168,184.644 C93.1386665,183.793329 93.2119991,182.972004 93.388,182.18 C93.5640009,181.387996 93.7253326,180.61067 93.872,179.848 C94.1066678,178.527993 94.3779985,177.274006 94.686,176.086 C94.9940015,174.897994 95.3093317,173.717339 95.632,172.544 C93.6079899,172.984002 91.6060099,173.511997 89.626,174.128 C87.6459901,174.744003 85.6880097,175.359997 83.752,175.976 L83.5185305,176.058612 C83.3856329,176.10351 83.2284906,176.153796 83.0471029,176.209469 L82.652,176.328 C82.1533308,176.474667 81.8160009,176.606666 81.64,176.724 L81.4982223,176.799778 C81.4151114,176.846222 81.3136673,176.9055 81.1938893,176.977611 L81.068,177.054 C80.8039987,177.215334 80.5986674,177.369333 80.452,177.516 C79.6942184,178.493783 79.0026494,179.486831 78.3772787,180.495165 L78.01,181.102 C77.2913297,182.319339 76.5066709,183.543994 75.656,184.776 C74.7466621,186.066673 73.9106705,187.327994 73.148,188.56 C72.4806633,189.638005 71.8694807,190.817058 71.3144382,192.097186 L71.08,192.652 C70.9626661,192.916001 70.8526672,193.187332 70.75,193.466 C70.6473328,193.744668 70.5080009,193.986666 70.332,194.192 C70.1559991,194.397334 69.9360013,194.565999 69.672,194.698 C69.4079987,194.830001 69.0853352,194.896 68.704,194.896 C68.1173304,194.925333 67.6186687,194.734669 67.208,194.324 C66.7973313,193.913331 66.5186674,193.502669 66.372,193.092 C66.313333,192.886666 66.313333,192.710667 66.372,192.564 C66.430667,192.417333 66.5186661,192.278001 66.636,192.146 C66.7142226,192.058 66.7989629,191.976518 66.890222,191.901556 L67.032,191.794 C67.1786674,191.691333 67.2959996,191.596 67.384,191.508 C67.7066683,191.097331 68.0293317,190.664669 68.352,190.21 C68.6746683,189.755331 68.9826652,189.293336 69.276,188.824 C70.3906722,186.975991 71.5566606,185.142676 72.774,183.324 C73.9913394,181.505324 75.2159938,179.686676 76.448,177.868 L76.0475094,178.00449 C75.736217,178.106259 75.4810486,178.178095 75.282,178.22 L74.8859999,178.297 C74.7613335,178.319 74.6440006,178.337333 74.534,178.352 L73.852,178.44 L73.852,178.44 C73.6173322,178.469333 73.2800022,178.542666 72.84,178.66 C72.5759987,178.748 72.3266678,178.843333 72.092,178.946 C71.8573322,179.048667 71.6080013,179.1 71.344,179.1 C70.5142816,179.225715 69.7869401,179.367591 69.16196,179.525632 L66.68,180.2 C66.2986648,180.317334 66.0640004,180.324667 65.976,180.222 C65.8879996,180.119333 65.9099993,179.972668 66.042,179.782 C66.1740007,179.591332 66.3866652,179.378668 66.68,179.144 C66.9733348,178.909332 67.3253313,178.704001 67.736,178.528 C68.4986705,178.205332 69.2833293,177.926668 70.09,177.692 C70.8966707,177.457332 71.6813295,177.208001 72.444,176.944 C73.4706718,176.533331 74.5119947,176.152002 75.568,175.8 C76.6240053,175.447998 77.6799947,175.125335 78.736,174.832 C80.202674,172.866657 81.6913258,170.908676 83.202,168.958 C84.7126742,167.007324 86.2746586,165.086009 87.888,163.194 C89.5013414,161.301991 91.1659914,159.468676 92.882,157.694 C94.5980086,155.919324 96.4093238,154.240008 98.316,152.656 C98.8440026,152.186664 99.4893295,151.717336 100.252,151.248 C101.01467,150.778664 101.821329,150.5 102.672,150.412 C103.053335,150.382667 103.368665,150.448666 103.618,150.61 C103.867335,150.771334 104.079999,150.983999 104.256,151.248 C104.314667,151.306667 104.344,151.365333 104.344,151.424 C104.344,151.482667 104.373333,151.556 104.432,151.644 C104.549334,151.878668 104.652,152.032666 104.74,152.106 C104.828,152.179334 104.842667,152.406665 104.784,152.788 C104.725333,153.140002 104.637334,153.499331 104.52,153.866 C104.402666,154.232668 104.285334,154.591998 104.168,154.944 C103.815998,156.176006 103.427335,157.378661 103.002,158.552 C102.576665,159.725339 102.144002,160.898661 101.704,162.072 C101.263998,163.245339 100.824002,164.411328 100.384,165.57 C99.9439978,166.728672 99.5333352,167.909327 99.152,169.112 Z M98.5967192,162.654562 L98.888,161.896 C99.3866692,160.63466 99.8559978,159.285341 100.296,157.848 C100.736002,156.410659 101.146665,155.002674 101.528,153.624 L101.484,153.624 C101.396,153.624 101.352,153.653333 101.352,153.712 L100.175,154.79 L100.175,154.79 L98.932,155.912 C98.0813291,156.67467 97.2306709,157.451996 96.38,158.244 C95.5293291,159.036004 94.6933374,159.835329 93.872,160.642 C93.0506626,161.448671 92.2880035,162.23333 91.584,162.996 C90.2053264,164.521341 88.8340068,166.068659 87.47,167.638 C86.1059932,169.207341 84.8666722,170.915991 83.752,172.764 C85.6586762,172.17733 87.7266555,171.620003 89.956,171.092 C92.1853445,170.563997 94.3413229,170.094669 96.424,169.684 C96.8346687,168.33466 97.2233315,167.014673 97.59,165.724 C97.8833348,164.691462 98.2189057,163.668322 98.5967192,162.654562 L98.5967192,162.654562 Z M119.04,166.956 C119.098667,166.926667 119.15,166.904667 119.194,166.89 C119.238,166.875333 119.230667,166.912 119.172,167 C119.195467,167.046934 119.2424,167.061014 119.3128,167.04224 L119.37,167.022 C119.472667,166.978 119.553333,166.963333 119.612,166.978 C119.670667,166.992667 119.663334,167.087999 119.59,167.264 L119.48,167.498666 C119.382223,167.694221 119.235557,167.967998 119.04,168.32 C119.069333,168.349333 118.937335,168.554665 118.644,168.936 C118.350665,169.317335 117.991335,169.749998 117.566,170.234 L115.979555,172.045334 C115.770962,172.280001 115.617778,172.446222 115.52,172.544 C115.343999,172.720001 115.106126,172.982624 114.806376,173.331874 L114.486,173.71 C114.031331,174.252669 113.518003,174.824664 112.946,175.426 C112.373997,176.027336 111.765337,176.591997 111.12,177.12 C110.474663,177.648003 109.851336,177.999999 109.25,178.176 C108.648664,178.352001 108.098669,178.286002 107.6,177.978 C107.101331,177.669998 106.705335,176.988005 106.412,175.932 C106.470667,175.814666 106.470667,175.697334 106.412,175.58 C106.353333,175.462666 106.324,175.374667 106.324,175.316 C106.353333,174.905331 106.412,174.516669 106.5,174.15 C106.588,173.783332 106.676,173.394669 106.764,172.984 C106.764,172.778666 106.815333,172.580668 106.918,172.39 L107.072,172.1095 L107.072,172.1095 L107.226,171.84 C107.328667,171.663999 107.424,171.488001 107.512,171.312 C107.6,171.135999 107.644,170.930668 107.644,170.696 C107.761334,170.490666 107.856666,170.292668 107.93,170.102 C108.003334,169.911332 108.069333,169.698668 108.128,169.464 C108.304001,169.287999 108.487332,169.068001 108.678,168.804 C108.847482,168.569332 109.103875,168.508493 109.447185,168.621481 L109.58,168.672 C109.668,168.701333 109.741333,168.745333 109.8,168.804 C109.858667,168.862667 109.932,168.921333 110.02,168.98 L110.222125,169.08725 C110.237708,169.096417 110.251,169.104667 110.262,169.112 C110.306,169.141333 110.342667,169.229333 110.372,169.376 C110.372,169.434667 110.362222,169.486815 110.342667,169.532444 L110.306,169.596 C110.262,169.654667 110.24,169.742666 110.24,169.86 C110.24,169.889333 110.196,169.904 110.108,169.904 L109.756,170.784 C109.736444,170.823111 109.720148,170.849185 109.707111,170.862222 L109.69,170.872 C109.675333,170.872 109.668,170.901333 109.668,170.96 C109.609333,171.048 109.58,171.143333 109.58,171.246 C109.58,171.348667 109.565333,171.429333 109.536,171.488 C109.536,171.546667 109.521333,171.583333 109.492,171.598 C109.462667,171.612667 109.448,171.634667 109.448,171.664 C109.330666,172.062935 109.185174,172.508799 109.01152,173.001599 L108.876,173.38 C108.641332,174.025337 108.465334,174.597331 108.348,175.096 C108.406667,175.389335 108.692664,175.426001 109.206,175.206 C109.719336,174.985999 110.305997,174.656002 110.966,174.216 C111.626003,173.775998 112.263997,173.284669 112.88,172.742 C113.496003,172.199331 113.935999,171.737335 114.2,171.356 C114.398001,171.179999 114.5795,170.99575 114.7445,170.80325 L114.904,170.608 C115.109334,170.343999 115.343999,170.094668 115.608,169.86 L116.312,169.156 C116.664002,168.803998 117.030665,168.444669 117.412,168.078 C117.793335,167.711332 118.145332,167.410668 118.468,167.176 C118.790668,166.941332 118.981333,166.868 119.04,166.956 Z M132.28627,170.84766 C132.307171,170.827634 132.313748,170.813748 132.306,170.806 C132.291333,170.791333 132.269333,170.791333 132.24,170.806 C132.210667,170.820667 132.196,170.835333 132.196,170.85 C132.196,170.855252 132.203522,170.857683 132.218567,170.857293 L132.28627,170.84766 L132.28627,170.84766 Z M132.28627,170.84766 L132.372,170.828 C132.391556,170.828 132.41437,170.821482 132.440444,170.808445 L132.482,170.784 C132.526,170.754667 132.562667,170.74 132.592,170.74 C132.856001,170.74 133.032,170.762 133.12,170.806 C133.208,170.85 133.244667,170.923333 133.23,171.026 C133.215333,171.128667 133.156667,171.245999 133.054,171.378 C132.951333,171.510001 132.841334,171.663999 132.724,171.84 C132.753333,171.84 132.716667,171.876666 132.614,171.95 C132.545555,171.998889 132.470593,172.047778 132.389111,172.096667 L132.262,172.17 C132.174,172.218889 132.092518,172.267778 132.017556,172.316667 L131.756,172.5 C131.433332,172.734668 131.037336,172.983999 130.568,173.248 C130.098664,173.512001 129.629336,173.768665 129.16,174.018 L128.478,174.3755 C128.258,174.489166 128.045334,174.597333 127.84,174.7 L127.236571,174.994531 C127.110857,175.053796 127.004,175.102286 126.916,175.14 L123.748,176.636 C123.513332,176.782667 123.256668,176.892666 122.978,176.966 C122.699332,177.039334 122.428001,177.12 122.164,177.208 L121.603,177.34 C121.405001,177.384 121.196001,177.428 120.976,177.472 C120.535998,177.56 120.096002,177.596667 119.656,177.582 C119.215998,177.567333 118.798002,177.479334 118.402,177.318 C118.005998,177.156666 117.676001,176.885335 117.412,176.504 C117.206666,176.239999 117.089333,175.917335 117.06,175.536 C117.030667,175.154665 117.06,174.766002 117.148,174.37 C117.236,173.973998 117.360666,173.578002 117.522,173.182 C117.683334,172.785998 117.851999,172.426668 118.028,172.104 C118.174667,171.986666 118.292,171.840001 118.38,171.664 C118.468,171.487999 118.526667,171.341334 118.556,171.224 C119.172003,170.490663 119.809997,169.78667 120.47,169.112 C121.130003,168.43733 121.811996,167.909335 122.516,167.528 C122.838668,167.322666 123.175998,167.146667 123.528,167 C123.880002,166.853333 124.202665,166.706667 124.496,166.56 C124.613334,166.501333 124.708666,166.442667 124.782,166.384 C124.855334,166.325333 124.965333,166.296 125.112,166.296 C126.168005,166.296 126.857332,166.479332 127.18,166.846 C127.502668,167.212669 127.664,167.571998 127.664,167.924 C127.640533,168.017867 127.570134,168.12112 127.4528,168.23376 L127.356,168.32 C127.179999,168.466667 127.048,168.613333 126.96,168.76 C126.813333,168.906667 126.681334,169.045999 126.564,169.178 C126.446666,169.310001 126.358667,169.434666 126.3,169.552 C125.126661,170.578672 123.953339,171.487996 122.78,172.28 C122.486665,172.514668 122.098002,172.676 121.614,172.764 C121.129998,172.852 120.638669,172.866667 120.14,172.808 C119.963999,172.984001 119.788001,173.211332 119.612,173.49 C119.435999,173.768668 119.296667,174.061998 119.194,174.37 C119.091333,174.678002 119.047333,174.985998 119.062,175.294 C119.076667,175.602002 119.201332,175.858666 119.436,176.064 C120.02267,176.122667 120.535998,176.064001 120.976,175.888 C121.416002,175.711999 121.841331,175.565334 122.252,175.448 C122.574668,175.36 122.911998,175.257334 123.264,175.14 C123.616002,175.022666 123.923999,174.905334 124.188,174.788 L125.136245,174.342612 C125.346367,174.245633 125.536285,174.159429 125.706,174.084 C125.970001,173.966666 126.224222,173.855852 126.468666,173.751556 L126.828,173.6 C127.180002,173.453333 127.546665,173.292001 127.928,173.116 L128.28,172.947184 C128.594285,172.791538 128.96095,172.598477 129.38,172.368 C129.849336,172.133332 130.325998,171.891335 130.81,171.642 L131.748666,171.153111 C131.900222,171.07326 132.049333,170.994223 132.196,170.916 L132.263796,170.867176 C132.272556,170.860127 132.280048,170.853622 132.28627,170.84766 Z M120.58,172.104 C121.284004,171.223996 122.039329,170.417337 122.846,169.684 C123.652671,168.950663 124.583995,168.393335 125.64,168.012 C125.64,168.1 125.610667,168.144 125.552,168.144 C125.053331,168.73067 124.496003,169.309997 123.88,169.882 C123.263997,170.454003 122.66267,170.974664 122.076,171.444 C121.841332,171.590667 121.599335,171.737333 121.35,171.884 C121.100665,172.030667 120.844001,172.104 120.58,172.104 Z" id="Ave"></path></g></g></svg> 