<?xml version="1.0" encoding="UTF-8"?> <!-- Generator: Adobe Illustrator 19.0.0, SVG Export Plug-In . SVG Version: 6.00 Build 0) --> <svg xmlns="http://www.w3.org/2000/svg" xmlns:xlink="http://www.w3.org/1999/xlink" id="Layer_1" x="0px" y="0px" viewBox="0 0 490.773 490.773" style="enable-background:new 0 0 490.773 490.773;" xml:space="preserve"> <g> <g> <path d="M490.667,266.289c0-1.28-0.32-2.453-0.747-3.627c-0.107-0.213-0.213-0.427-0.32-0.533c-0.32-0.64-0.64-1.28-1.067-1.813 l-72.427-95.68V73.329c0.107-35.093-26.56-62.613-60.587-62.613H140.48c-35.627,0-65.707,28.693-65.707,62.613v97.387 l-72.32,89.28c-0.64,0.747-1.067,1.6-1.493,2.453l-0.107,0.107c-0.427,1.173-0.747,2.453-0.747,3.627 c0,0.107-0.107,0.32-0.107,0.427v202.347c0,5.333,3.84,10.133,9.067,10.88c6.72,1.067,12.373-4.053,12.373-10.453v-74.667h448 v74.347c0,5.333,3.84,10.133,9.067,10.88c6.613,0.96,12.267-4.16,12.267-10.56V266.715 C490.773,266.609,490.667,266.502,490.667,266.289z M96.107,73.329c0-21.973,20.693-41.28,44.373-41.28h214.827 c22.08,0,39.467,18.133,39.467,41.28v86.72H96.107V73.329z M93.547,181.382h308.48l56.64,74.667H33.173L93.547,181.382z M469.44,373.382h-448v-96h448V373.382z"></path> </g> </g> <g> </g> <g> </g> <g> </g> <g> </g> <g> </g> <g> </g> <g> </g> <g> </g> <g> </g> <g> </g> <g> </g> <g> </g> <g> </g> <g> </g> <g> </g> </svg> 