<?xml version="1.0" encoding="UTF-8"?> <!-- Generator: Adobe Illustrator 19.0.0, SVG Export Plug-In . SVG Version: 6.00 Build 0) --> <svg xmlns="http://www.w3.org/2000/svg" xmlns:xlink="http://www.w3.org/1999/xlink" id="Capa_1" x="0px" y="0px" viewBox="0 0 480 480" style="enable-background:new 0 0 480 480;" xml:space="preserve"> <g> <g> <g> <path d="M456,72H24C10.745,72,0,82.745,0,96v288c0,13.255,10.745,24,24,24h432c13.255,0,24-10.745,24-24V96 C480,82.745,469.255,72,456,72z M464,384c0,4.418-3.582,8-8,8H24c-4.418,0-8-3.582-8-8V184h448V384z M464,168H16v-32h448V168z M464,120H16V96c0-4.418,3.582-8,8-8h432c4.418,0,8,3.582,8,8V120z"></path> <path d="M372.75,352.194c1.16-1.004,2.246-2.09,3.25-3.25c11.602,13.284,31.777,14.648,45.062,3.045 c13.284-11.602,14.648-31.777,3.045-45.062C418.03,299.97,409.238,295.984,400,296c-9.225,0.03-17.982,4.064-24,11.056 c-11.567-13.362-31.776-14.817-45.138-3.25c-13.362,11.567-14.817,31.776-3.25,45.138 C339.179,362.306,359.388,363.761,372.75,352.194z M400,312c8.837,0,16,7.163,16,16s-7.163,16-16,16s-16-7.163-16-16 S391.163,312,400,312z M352,312c8.837,0,16,7.163,16,16s-7.163,16-16,16s-16-7.163-16-16S343.163,312,352,312z"></path> <path d="M64,320h96c4.418,0,8-3.582,8-8s-3.582-8-8-8H64c-4.418,0-8,3.582-8,8S59.582,320,64,320z"></path> <path d="M64,352h96c4.418,0,8-3.582,8-8s-3.582-8-8-8H64c-4.418,0-8,3.582-8,8S59.582,352,64,352z"></path> </g> </g> </g> <g> </g> <g> </g> <g> </g> <g> </g> <g> </g> <g> </g> <g> </g> <g> </g> <g> </g> <g> </g> <g> </g> <g> </g> <g> </g> <g> </g> <g> </g> </svg> 