<?xml version="1.0" encoding="UTF-8"?> <svg xmlns="http://www.w3.org/2000/svg" viewBox="0 -16 512 512"><path d="m256 340c-5.519531 0-10 4.480469-10 10s4.480469 10 10 10 10-4.480469 10-10-4.480469-10-10-10zm0 0"></path><path d="m482 180h-36c0-33.328125 0-117.09375 0-150 0-16.542969-13.457031-30-30-30h-386c-16.542969 0-30 13.457031-30 30v240c0 16.542969 13.457031 30 30 30h36v150c0 16.542969 13.457031 30 30 30h386c16.542969 0 30-13.457031 30-30v-240c0-16.542969-13.457031-30-30-30zm-462-100h406v40h-406zm10-60h386c5.515625 0 10 4.484375 10 10v30h-406v-30c0-5.515625 4.484375-10 10-10zm0 260c-5.515625 0-10-4.484375-10-10v-130h406v40h-330c-16.542969 0-30 13.457031-30 30v70zm462 170c0 5.515625-4.484375 10-10 10h-386c-5.515625 0-10-4.484375-10-10v-240c0-5.515625 4.484375-10 10-10h386c5.515625 0 10 4.484375 10 10zm0 0"></path><path d="m396 240c-10.902344 0-21.414062 3.578125-30.003906 10.019531-8.582032-6.441406-19.089844-10.019531-29.996094-10.019531-27.570312 0-50 22.429688-50 50s22.429688 50 50 50c10.90625 0 21.417969-3.578125 29.996094-10.019531 8.589844 6.441406 19.101562 10.019531 30.003906 10.019531 27.570312 0 50-22.429688 50-50s-22.429688-50-50-50zm-90 50c0-16.542969 13.457031-30 30-30 8.601562 0 16.796875 3.703125 22.488281 10.160156 0 .003906.003907.007813.007813.011719 4.839844 5.472656 7.503906 12.515625 7.503906 19.828125s-2.664062 14.355469-7.511719 19.839844c-5.691406 6.457031-13.886719 10.160156-22.488281 10.160156-16.542969 0-30-13.457031-30-30zm90 30c-5.988281 0-11.78125-1.800781-16.675781-5.070312 4.339843-7.53125 6.675781-16.113282 6.675781-24.929688s-2.335938-17.398438-6.675781-24.929688c4.894531-3.269531 10.6875-5.070312 16.675781-5.070312 16.542969 0 30 13.457031 30 30s-13.457031 30-30 30zm0 0"></path><path d="m176 400h-40c-5.523438 0-10 4.476562-10 10s4.476562 10 10 10h40c5.523438 0 10-4.476562 10-10s-4.476562-10-10-10zm0 0"></path><path d="m256 400h-40c-5.523438 0-10 4.476562-10 10s4.476562 10 10 10h40c5.523438 0 10-4.476562 10-10s-4.476562-10-10-10zm0 0"></path><path d="m336 400h-40c-5.523438 0-10 4.476562-10 10s4.476562 10 10 10h40c5.523438 0 10-4.476562 10-10s-4.476562-10-10-10zm0 0"></path><path d="m416 400h-40c-5.523438 0-10 4.476562-10 10s4.476562 10 10 10h40c5.523438 0 10-4.476562 10-10s-4.476562-10-10-10zm0 0"></path><path d="m136 360h80c5.523438 0 10-4.476562 10-10s-4.476562-10-10-10h-80c-5.523438 0-10 4.476562-10 10s4.476562 10 10 10zm0 0"></path></svg> 