<?xml version="1.0" encoding="UTF-8"?> <!-- Generator: Adobe Illustrator 19.0.0, SVG Export Plug-In . SVG Version: 6.00 Build 0) --> <svg xmlns="http://www.w3.org/2000/svg" xmlns:xlink="http://www.w3.org/1999/xlink" id="Layer_1" x="0px" y="0px" viewBox="0 0 512.043 512.043" style="enable-background:new 0 0 512.043 512.043;" xml:space="preserve"> <g> <g> <path d="M501.355,234.709H102.869L59.84,140.053c2.432-3.477,4.181-7.467,4.181-12.011c0-0.043-0.021-0.064-0.021-0.107 l92.032-53.675l-6.123,18.389c-1.109,3.243-0.555,6.848,1.451,9.621c2.005,2.773,5.227,4.437,8.661,4.437h85.333 c3.435,0,6.656-1.643,8.704-4.437c1.984-2.795,2.539-6.379,1.451-9.621l-20.843-62.549C233.664,13.333,219.733,0,202.709,0 s-30.976,13.333-31.957,30.101l-4.587,13.76c-0.277,0.128-0.597,0.128-0.875,0.299L52.949,109.696 c-3.093-1.749-6.464-2.987-10.261-2.987c-11.776,0-21.333,9.557-21.333,21.333c0,10.987,8.427,19.712,19.093,20.885l38.997,85.781 H10.688c-5.888,0-10.667,4.779-10.667,10.667v256c0,5.888,4.779,10.667,10.667,10.667s10.667-4.779,10.667-10.667v-160h277.333 v160c0,5.888,4.779,10.667,10.667,10.667h192c5.888,0,10.667-4.779,10.667-10.667v-256 C512.021,239.488,507.243,234.709,501.355,234.709z M191.467,35.413c0.363-1.088,0.555-2.24,0.555-3.371 c0-5.888,4.779-10.667,10.667-10.667s10.667,4.779,10.667,10.667c0,1.152,0.192,2.283,0.555,3.371l16.64,49.963h-55.723 L191.467,35.413z M298.688,320.043H21.355v-64h277.333V320.043z M490.688,490.709H320.021v-64h170.667V490.709z M490.688,405.376 H320.021v-64h170.667V405.376z M490.688,320.043H320.021v-64h170.667V320.043z"></path> </g> </g> <g> <g> <path d="M416.021,277.376h-21.333c-5.888,0-10.667,4.779-10.667,10.667s4.779,10.667,10.667,10.667h21.333 c5.888,0,10.667-4.779,10.667-10.667S421.909,277.376,416.021,277.376z"></path> </g> </g> <g> <g> <path d="M416.021,362.709h-21.333c-5.888,0-10.667,4.779-10.667,10.667s4.779,10.667,10.667,10.667h21.333 c5.888,0,10.667-4.779,10.667-10.667S421.909,362.709,416.021,362.709z"></path> </g> </g> <g> <g> <path d="M416.021,448.043h-21.333c-5.888,0-10.667,4.779-10.667,10.667c0,5.888,4.779,10.667,10.667,10.667h21.333 c5.888,0,10.667-4.779,10.667-10.667C426.688,452.821,421.909,448.043,416.021,448.043z"></path> </g> </g> <g> </g> <g> </g> <g> </g> <g> </g> <g> </g> <g> </g> <g> </g> <g> </g> <g> </g> <g> </g> <g> </g> <g> </g> <g> </g> <g> </g> <g> </g> </svg> 