<?xml version="1.0" encoding="utf-8" ?>
<svg xmlns="http://www.w3.org/2000/svg" width="13" height="10" viewBox="0 0 13 10">
  <path d="M13.5337662,189.785714 L13.5337662,184.642857 C13.3909084,184.803572 13.2368921,184.950892 13.0717127,185.084821 C11.8752781,186.004469 10.9243948,186.758926 10.2190341,187.348214 C9.99135438,187.54018 9.80608838,187.689732 9.66323052,187.796875 C9.52037266,187.904018 9.32729424,188.012276 9.08398945,188.121652 C8.84068466,188.231027 8.61189231,188.285714 8.39760552,188.285714 L8.38421266,188.285714 C8.16992588,188.285714 7.94113352,188.231027 7.69782873,188.121652 C7.45452395,188.012276 7.26144552,187.904018 7.11858766,187.796875 C6.97572981,187.689732 6.7904638,187.54018 6.56278409,187.348214 C5.85742342,186.758926 4.90654007,186.004469 3.71010552,185.084821 C3.54492612,184.950892 3.39090981,184.803572 3.24805195,184.642857 L3.24805195,189.785714 C3.24805195,189.84375 3.26925709,189.893973 3.31166802,189.936384 C3.35407895,189.978795 3.40430166,190 3.46233766,190 L13.3194805,190 C13.3775165,190 13.4277392,189.978795 13.4701502,189.936384 C13.5125611,189.893973 13.5337662,189.84375 13.5337662,189.785714 Z M13.5337662,182.747768 L13.5337662,182.583705 C13.5337662,182.563616 13.5326502,182.534598 13.530418,182.496652 C13.5281859,182.458705 13.5214895,182.430804 13.5103287,182.412946 C13.499168,182.395089 13.4868913,182.375 13.4734984,182.352679 C13.4601055,182.330357 13.4400164,182.313616 13.4132305,182.302455 C13.3864447,182.291295 13.355195,182.285714 13.3194805,182.285714 L3.46233766,182.285714 C3.40430166,182.285714 3.35407895,182.306919 3.31166802,182.34933 C3.26925709,182.391741 3.24805195,182.441964 3.24805195,182.5 C3.24805195,183.250004 3.57617367,183.883926 4.23242695,184.401786 C5.0940384,185.080361 5.98911873,185.787943 6.91769481,186.524554 C6.94448065,186.546875 7.02260487,186.612723 7.15206981,186.722098 C7.28153474,186.831474 7.38421228,186.915178 7.46010552,186.973214 C7.53599876,187.03125 7.63532812,187.101562 7.75809659,187.184152 C7.88086506,187.266741 7.99358715,187.328125 8.09626623,187.368304 C8.19894532,187.408482 8.2949265,187.428571 8.38421266,187.428571 L8.39760552,187.428571 C8.48689168,187.428571 8.58287286,187.408482 8.68555195,187.368304 C8.78823103,187.328125 8.90095312,187.266741 9.02372159,187.184152 C9.14649006,187.101562 9.24581943,187.03125 9.32171266,186.973214 C9.3976059,186.915178 9.50028344,186.831474 9.62974838,186.722098 C9.75921331,186.612723 9.83733753,186.546875 9.86412338,186.524554 C10.7926994,185.787943 11.6877798,185.080361 12.5493912,184.401786 C12.7904639,184.20982 13.014792,183.952011 13.2223823,183.628348 C13.4299726,183.304686 13.5337662,183.011162 13.5337662,182.747768 Z M14.3909091,182.5 L14.3909091,189.785714 C14.3909091,190.080359 14.2859994,190.332588 14.0761769,190.542411 C13.8663545,190.752233 13.6141248,190.857143 13.3194805,190.857143 L3.46233766,190.857143 C3.16769333,190.857143 2.91546371,190.752233 2.70564123,190.542411 C2.49581876,190.332588 2.39090909,190.080359 2.39090909,189.785714 L2.39090909,182.5 C2.39090909,182.205356 2.49581876,181.953126 2.70564123,181.743304 C2.91546371,181.533481 3.16769333,181.428571 3.46233766,181.428571 L13.3194805,181.428571 C13.6141248,181.428571 13.8663545,181.533481 14.0761769,181.743304 C14.2859994,181.953126 14.3909091,182.205356 14.3909091,182.5 Z" transform="translate(-2 -181)"/>
</svg>
