<?xml version="1.0" encoding="UTF-8"?> <svg xmlns="http://www.w3.org/2000/svg" xmlns:xlink="http://www.w3.org/1999/xlink" width="60px" height="32px" viewBox="0 0 60 32"><!-- Generator: Sketch 58 (84663) - https://sketch.com --><title>Group</title><desc>Created with Sketch.</desc><g id="Page-1" stroke="none" stroke-width="1" fill="none" fill-rule="evenodd"><g id="Desktop-HD" transform="translate(-695.000000, -27.000000)" fill-rule="nonzero"><g id="Group" transform="translate(695.018333, 27.036000)"><path d="M27.8776667,8.712 L26.8876667,10.67 L26.8876667,10.67 L24.4676673,15.431679 C24.2388678,15.8798914 24.0042013,16.3386643 23.7636667,16.808 C23.1623304,17.9813392 22.5536698,19.1399943 21.9376667,20.284 L20.4856655,23.0511137 C19.488334,24.9414806 18.432339,26.9231007 17.3176667,28.996 L10.3656667,29.964 L10.9914451,28.819999 C11.4151481,28.0377782 11.8518867,27.2164487 12.3016667,26.356 L12.7540425,25.5131237 C13.218792,24.6413746 13.720664,23.6830052 14.2596667,22.638 L15.3541666,20.5205001 C15.7244991,19.8055019 16.1003315,19.081337 16.4816667,18.348 L10.3656667,18.348 C9.51499581,19.9906749 8.73767025,21.574659 8.03366673,23.1 L7.52354061,24.2123774 C7.11333236,25.1130021 6.74036567,25.9477371 6.40463607,26.7165924 L6.20766673,27.17 C5.74566442,28.2392053 5.39058728,29.130198 5.14242697,29.8429993 L5.06366673,30.074 C4.81433215,30.8220037 4.73366629,31.2399996 4.82166673,31.328 C3.06165793,32.00267 1.80767047,32.0686694 1.05966673,31.526 C0.311662992,30.9833306 -0.0403334879,30.0446733 0.00366673208,28.71 C0.0476669521,27.3753267 0.443662992,25.7400097 1.19166673,23.804 C1.93967047,21.8679903 2.92232731,19.8366773 4.13966673,17.71 C5.35700615,15.5833227 6.77232533,13.4640106 8.38566673,11.352 C9.99900813,9.23998944 11.7003245,7.3406751 13.4896667,5.654 C15.279009,3.9673249 17.112324,2.60333854 18.9896667,1.562 C20.8670095,0.52066146 22.6709914,-1.03028697e-13 24.4016667,-1.03028697e-13 C27.1296804,-1.03028697e-13 28.7649974,0.6599934 29.3076667,1.98 C29.8503361,3.3000066 29.3736742,5.54398416 27.8776667,8.712 Z M24.2256667,1.056 C23.3163289,1.056 22.3116722,1.52532864 21.2116667,2.464 C20.1116612,3.40267136 18.9823392,4.62732578 17.8236667,6.138 C16.6649943,7.64867422 15.5063392,9.3573238 14.3476667,11.264 C13.1889943,13.1706762 12.081672,15.1066568 11.0256667,17.072 L17.0976667,17.072 L17.8591374,15.6370588 C18.4787287,14.4607334 19.0609021,13.333053 19.6056667,12.254 L20.3853042,10.7194524 C20.8095459,9.89048396 21.1803318,9.17733632 21.4976667,8.58 L22.5767692,6.37955522 C23.3313689,4.82518259 23.8883316,3.63733744 24.2476667,2.816 C24.7610026,1.6426608 24.7536694,1.056 24.2256667,1.056 Z M24.1572247,21.4999225 L24.3136667,21.164 C24.7536689,20.2253286 25.2083311,19.2866714 25.6776667,18.348 L26.1372229,17.4386654 C26.3621114,16.9986661 26.579666,16.5806679 26.7898884,16.1846677 L28.3176667,13.332 L28.3176667,13.332 L35.2696667,12.364 L34.8736664,13.1315561 C34.5998891,13.6660736 34.3065572,14.2462191 33.9936667,14.872 L32.7472299,17.2878736 L32.7472299,17.2878736 L30.6936667,21.296 L30.6936667,21.296 L29.732307,23.2309078 C28.969112,24.778424 28.3878731,25.9894927 27.9885812,26.8641322 L27.8996667,27.06 C27.3569974,28.2626727 27.3496641,28.864 27.8776667,28.864 C28.259002,28.864 28.7796634,28.5120035 29.4396667,27.808 C30.09967,27.1039965 30.7963297,26.2020055 31.5296667,25.102 C32.2630037,24.0019945 32.9889965,22.8066731 33.7076667,21.516 C34.426337,20.2253269 35.0496641,18.9933392 35.5776667,17.82 C36.1056694,16.6466608 36.4943322,15.6200044 36.7436667,14.74 C36.9930013,13.8599956 37.0003346,13.2880013 36.7656667,13.024 C38.2616742,12.4666639 39.4276626,12.2833324 40.2636667,12.474 C41.0996709,12.6646676 41.6496654,13.1046632 41.9136667,13.794 C42.1776681,14.4833368 42.1850013,15.3559947 41.9356667,16.412 C41.6863322,17.4680053 41.2536698,18.5973273 40.6376667,19.8 C40.0216637,21.0026727 39.2443381,22.2053273 38.3056667,23.408 C37.3669954,24.6106727 36.3256725,25.6959952 35.1816667,26.664 C34.037661,27.6320048 32.8276731,28.4166637 31.5516667,29.018 C30.2756604,29.6193363 28.9923399,29.92 27.7016667,29.92 C24.9736531,29.92 23.3530026,29.2526733 22.8396667,27.918 C22.3446643,26.6309936 22.7838458,24.4916546 24.1572247,21.4999225 L24.1572247,21.4999225 Z M46.5138292,24.4030223 C47.182578,24.2606124 47.8565191,23.9362737 48.5356667,23.43 C49.3423374,22.8286637 50.0976632,22.1026709 50.8016667,21.252 C51.5056703,20.4013291 52.1509971,19.4993381 52.7376667,18.546 C53.3243363,17.5926619 53.7863317,16.7126707 54.1236667,15.906 C54.4610018,15.0993293 54.666333,14.4246694 54.7396667,13.882 C54.8130004,13.3393306 54.688335,13.068 54.3656667,13.068 C53.954998,13.068 53.3683372,13.463996 52.6056667,14.256 C51.8429963,15.048004 51.0510042,16.0453273 50.2296667,17.248 C49.4083293,18.4506727 48.638337,19.7413264 47.9196667,21.12 C47.4030478,22.1110649 46.9849606,23.0566454 46.6653994,23.9567561 L46.5138292,24.4030223 L46.5138292,24.4030223 Z M46.301729,25.1156176 C45.9935905,26.2631737 45.9315704,27.2192922 46.1156667,27.984 C46.3063344,28.776004 46.9296615,29.172 47.9856667,29.172 C49.9803434,29.172 51.8063251,28.6146722 53.4636667,27.5 C55.1210084,26.3853278 56.7416588,24.9040092 58.3256667,23.056 C57.7683306,23.9653379 57.0716709,24.8379958 56.2356667,25.674 C55.3996626,26.5100042 54.4756718,27.2506634 53.4636667,27.896 C52.4516617,28.5413366 51.3736725,29.0546648 50.2296667,29.436 C49.085661,29.8173352 47.8976729,30.008 46.6656667,30.008 C44.7589905,30.008 43.3216716,29.5753377 42.3536667,28.71 C41.3856619,27.8446623 40.8356674,26.7520066 40.7036667,25.432 C40.5716661,24.1119934 40.8136637,22.6966742 41.4296667,21.186 C42.0456698,19.6753258 42.9696606,18.2600066 44.2016667,16.94 C45.4336729,15.6199934 46.9296579,14.5273377 48.6896667,13.662 C50.4496755,12.7966623 52.4149892,12.364 54.5856667,12.364 C56.0523407,12.364 57.1669963,12.6426639 57.9296667,13.2 C58.6923372,13.7573361 59.1323328,14.4613291 59.2496667,15.312 C59.3670007,16.1626709 59.1616694,17.1013282 58.6336667,18.128 C58.1056641,19.1546718 57.2696725,20.1446619 56.1256667,21.098 C54.981661,22.0513381 53.5590086,22.894663 51.8576667,23.628 C50.3992789,24.2566154 48.7361506,24.7235707 46.8682443,25.0288756 L46.301729,25.1156176 L46.301729,25.1156176 Z" id="Ave" fill="#E13B0F"></path><circle id="Oval" fill="#FFAC9A" cx="49.9816667" cy="5.964" r="2"></circle><circle id="Oval" fill="#FFAC9A" cx="55.9816667" cy="5.964" r="2"></circle></g></g></g></svg> 