<?xml version="1.0" encoding="UTF-8"?> <!-- Generator: Adobe Illustrator 19.0.0, SVG Export Plug-In . SVG Version: 6.00 Build 0) --> <svg xmlns="http://www.w3.org/2000/svg" xmlns:xlink="http://www.w3.org/1999/xlink" id="Layer_1" x="0px" y="0px" viewBox="0 0 469.333 469.333" style="enable-background:new 0 0 469.333 469.333;" xml:space="preserve"> <g> <g> <g> <path d="M437.333,266.667H32c-5.867,0-10.667,4.8-10.667,10.667v181.333c0,5.867,4.8,10.667,10.667,10.667 c5.867,0,10.667-4.8,10.667-10.667V352h384v106.667c0,5.867,4.8,10.667,10.667,10.667c5.867,0,10.667-4.8,10.667-10.667V277.333 C448,271.467,443.2,266.667,437.333,266.667z M224,330.667H42.667V288H224V330.667z M426.667,330.667H245.333V288h181.333 V330.667z"></path> <path d="M170.667,224C164.8,224,160,228.8,160,234.667c0,5.867,4.8,10.667,10.667,10.667h138.667 c5.867,0,10.667-4.8,10.667-10.667C320,228.8,315.2,224,309.333,224H170.667z"></path> <path d="M74.667,202.667h320c5.867,0,10.667-4.8,10.667-10.667V10.667C405.333,4.8,400.533,0,394.667,0h-320 C68.8,0,64,4.8,64,10.667V192C64,197.867,68.8,202.667,74.667,202.667z M85.333,21.333H384v160H85.333V21.333z"></path> </g> </g> </g> <g> </g> <g> </g> <g> </g> <g> </g> <g> </g> <g> </g> <g> </g> <g> </g> <g> </g> <g> </g> <g> </g> <g> </g> <g> </g> <g> </g> <g> </g> </svg> 