<?xml version="1.0" encoding="UTF-8"?> <!-- Generator: Adobe Illustrator 19.0.0, SVG Export Plug-In . SVG Version: 6.00 Build 0) --> <svg xmlns="http://www.w3.org/2000/svg" xmlns:xlink="http://www.w3.org/1999/xlink" id="Capa_1" x="0px" y="0px" viewBox="0 0 446.4 446.4" style="enable-background:new 0 0 446.4 446.4;" xml:space="preserve"> <g> <g> <path d="M368,219.2c0-0.8,0-1.6-0.8-2.4L310.4,46.4C308.8,20.8,271.2,0,223.2,0S137.6,20,136,46.4L79.2,216.8 c0,0.8-0.8,1.6-0.8,2.4c0,38.4,60,68,136.8,70.4v52.8c-50.4,2.4-88.8,24-88.8,52c0,29.6,42.4,52,96.8,52c54.4,0,96.8-23.2,96.8-52 c0-28-38.4-49.6-88.8-52v-52.8C308,288,368,257.6,368,219.2z M223.2,16c41.6,0,71.2,16.8,71.2,32.8s-29.6,32.8-71.2,32.8 c-42.4,0-71.2-16.8-71.2-32.8S180.8,16,223.2,16z M304,394.4c0,16.8-32.8,36-80.8,36s-80.8-19.2-80.8-36c0-16,29.6-34.4,72.8-36 v36c0,4.8,3.2,8,8,8s8-3.2,8-8v-36C274.4,360,304,377.6,304,394.4z M223.2,273.6c-75.2,0-127.2-27.2-128-52.8l49.6-150.4 c14.4,16,43.2,26.4,78.4,26.4c34.4,0,64-10.4,78.4-26.4l49.6,150.4C349.6,246.4,298.4,273.6,223.2,273.6z"></path> </g> </g> <g> </g> <g> </g> <g> </g> <g> </g> <g> </g> <g> </g> <g> </g> <g> </g> <g> </g> <g> </g> <g> </g> <g> </g> <g> </g> <g> </g> <g> </g> </svg> 