<?xml version="1.0" encoding="UTF-8"?> <!-- Generator: Adobe Illustrator 19.1.0, SVG Export Plug-In . SVG Version: 6.00 Build 0) --> <svg xmlns="http://www.w3.org/2000/svg" xmlns:xlink="http://www.w3.org/1999/xlink" id="Capa_1" x="0px" y="0px" viewBox="0 0 467.2 467.2" style="enable-background:new 0 0 467.2 467.2;" xml:space="preserve"> <g> <g> <path d="M455.15,120.9L363.45,4.6c-2.3-2.9-5.7-4.6-9.4-4.6h-240.8c-3.7,0-7.1,1.7-9.4,4.6l-91.7,116.3c-1.7,2.1-2.6,4.7-2.6,7.4 v326.9c0,6.6,5.4,12,12,12h424.1c6.6,0,12-5.4,12-12V128.3C457.65,125.6,456.75,123,455.15,120.9z M422.55,118.3h-176.9V24h102.6 L422.55,118.3z M119.05,24h102.6v94.3H44.75L119.05,24z M33.55,443.2V142.3h400.1v300.9H33.55z"></path> <path d="M362.25,227.2h-245.4c-6.6,0-12,5.4-12,12s5.4,12,12,12h245.4c6.6,0,12-5.4,12-12S368.85,227.2,362.25,227.2z"></path> <path d="M315.65,283.5h-152.2c-6.6,0-12,5.4-12,12s5.4,12,12,12h152.1c6.6,0,12-5.4,12-12S322.25,283.5,315.65,283.5z"></path> <path d="M315.65,339.7h-152.2c-6.6,0-12,5.4-12,12s5.4,12,12,12h152.1c6.6,0,12-5.4,12-12S322.25,339.7,315.65,339.7z"></path> </g> </g> <g> </g> <g> </g> <g> </g> <g> </g> <g> </g> <g> </g> <g> </g> <g> </g> <g> </g> <g> </g> <g> </g> <g> </g> <g> </g> <g> </g> <g> </g> </svg> 