<?xml version="1.0" encoding="UTF-8"?> <!-- Generator: Adobe Illustrator 19.0.0, SVG Export Plug-In . SVG Version: 6.00 Build 0) --> <svg xmlns="http://www.w3.org/2000/svg" xmlns:xlink="http://www.w3.org/1999/xlink" id="Layer_1" x="0px" y="0px" viewBox="0 0 491.444 491.444" style="enable-background:new 0 0 491.444 491.444;" xml:space="preserve"> <g> <g> <path d="M477.349,179.429c-9.813-9.813-21.12-12.373-26.56-13.547c-6.613-1.493-13.547-1.813-20.267-0.96 c-27.2-63.147-99.947-105.92-184.747-105.92c-80,0-150.72,43.093-179.52,106.88c-8.427-1.813-17.067-1.813-25.493,0.107 c-5.44,1.173-16.747,3.733-26.56,13.547c-1.813,1.813-17.28,18.027-13.653,41.173c3.52,22.933,23.36,37.227,40.32,40.853 c5.867,1.28,11.84,1.173,17.707-0.107c0.533-0.107,1.067-0.213,1.493-0.32c1.707,2.88,7.147,18.133-6.08,83.84 c-0.32,1.707-0.213,3.52,0.32,5.227c7.787,24.96,20.373,37.12,40.96,39.467c0.427,0,0.747,0.107,1.173,0.107v32 c0,5.867,4.8,10.667,10.667,10.667c5.867,0,10.667-4.8,10.667-10.667v-32h256v32c0,5.867,4.8,10.667,10.667,10.667 s10.667-4.8,10.667-10.667v-32c0.427,0,0.747,0,1.173-0.107c20.587-2.347,33.28-14.507,40.96-39.467 c0.533-1.707,0.64-3.52,0.32-5.227c-13.227-65.813-7.787-81.067-6.08-83.84c0.427,0.107,0.96,0.213,1.493,0.32 c5.76,1.28,11.84,1.387,17.6,0.107c16.96-3.627,36.8-17.92,40.32-40.853C494.522,197.456,479.056,181.242,477.349,179.429z M245.775,80.336c75.307,0,139.84,36.693,164.373,91.2c-3.627,2.027-7.147,4.267-10.453,6.72c-9.28,6.507-17.493,14.613-24,24 c-5.013,7.36-8.96,15.36-11.947,23.787c-8.107,22.4-10.453,49.067-11.093,67.627h-213.76c-0.64-18.56-3.093-45.227-11.093-67.627 c-2.987-8.427-6.933-16.427-11.947-23.787c-6.507-9.28-14.613-17.493-24-24c-1.92-1.387-3.947-2.773-5.973-4.053 C111.376,118.202,174.416,80.336,245.775,80.336z M469.989,217.402c-2.133,13.76-15.36,21.44-23.68,23.147 c-3.093,0.64-6.187,0.533-9.173-0.213c-3.627-0.747-8.64-1.707-14.293,0.96c-17.813,8-19.733,38.507-6.613,105.067 c-6.72,19.733-15.147,21.227-21.547,21.973H96.976c-6.4-0.747-14.933-2.24-21.547-21.973c13.12-66.56,11.2-97.067-6.613-105.067 c-5.653-2.56-10.667-1.6-14.293-0.96c-2.987,0.747-6.187,0.853-9.173,0.213c-8.32-1.813-21.547-9.387-23.68-23.147 c-2.027-12.907,7.573-22.827,7.573-22.933c5.44-5.44,12.053-6.933,16.107-7.787c5.44-1.28,11.2-1.28,16.64,0 c7.04,1.6,11.413,4.693,17.6,8.96c7.253,5.12,13.653,11.413,18.667,18.667c3.947,5.867,7.04,12.267,9.387,18.88 c8.64,24.213,10.027,54.933,10.027,71.04c0,5.867,4.8,10.667,10.667,10.667h234.667c5.867,0,10.667-4.8,10.667-10.667 c0-16.213,1.387-46.933,10.027-71.147c2.347-6.613,5.44-13.013,9.387-18.88c5.12-7.253,11.413-13.653,18.667-18.667 c6.08-4.267,10.56-7.36,17.493-8.96c5.547-1.173,11.2-1.173,16.747,0c4.053,0.853,10.667,2.347,16.107,7.787 C462.309,194.576,471.909,204.496,469.989,217.402z"></path> </g> </g> <g> </g> <g> </g> <g> </g> <g> </g> <g> </g> <g> </g> <g> </g> <g> </g> <g> </g> <g> </g> <g> </g> <g> </g> <g> </g> <g> </g> <g> </g> </svg> 