<?xml version="1.0" encoding="UTF-8"?> <svg xmlns="http://www.w3.org/2000/svg" viewBox="0 -26 512 511"><path d="m176 80.5c5.519531 0 10-4.480469 10-10s-4.480469-10-10-10-10 4.480469-10 10 4.480469 10 10 10zm0 0"></path><path d="m96 120.5c-5.515625 0-10-4.484375-10-10s4.484375-10 10-10c3.542969 0 7.28125 1.808594 10.816406 5.226562 3.96875 3.839844 10.300782 3.734376 14.140625-.230468 3.839844-3.972656 3.734375-10.300782-.234375-14.140625-5.074218-4.914063-10.152344-7.691407-14.722656-9.207031v-11.648438c0-5.523438-4.476562-10-10-10s-10 4.476562-10 10v11.71875c-11.640625 4.128906-20 15.246094-20 28.28125 0 16.542969 13.457031 30 30 30 5.511719 0 10 4.484375 10 10s-4.488281 10-10 10c-4.273438 0-8.886719-2.6875-12.988281-7.5625-3.550781-4.230469-9.859375-4.777344-14.085938-1.222656-4.230469 3.554687-4.773437 9.863281-1.222656 14.089844 5.347656 6.359374 11.632813 10.792968 18.296875 13.023437v11.671875c0 5.523438 4.476562 10 10 10s10-4.476562 10-10v-11.71875c11.636719-4.128906 20-15.246094 20-28.28125 0-16.542969-13.457031-30-30-30zm0 0"></path><path d="m232 340.5c-22.054688 0-40 17.945312-40 40s17.945312 40 40 40 40-17.945312 40-40-17.945312-40-40-40zm0 60c-11.027344 0-20-8.972656-20-20s8.972656-20 20-20 20 8.972656 20 20-8.972656 20-20 20zm0 0"></path><path d="m432 420.5c22.054688 0 40-17.945312 40-40s-17.945312-40-40-40-40 17.945312-40 40 17.945312 40 40 40zm0-60c11.027344 0 20 8.972656 20 20s-8.972656 20-20 20-20-8.972656-20-20 8.972656-20 20-20zm0 0"></path><path d="m482 .5h-452c-16.542969 0-30 13.457031-30 30v200c0 16.542969 13.457031 30 30 30h246.167969l-19.121094 27.308594c-5.6875 8.125-14.511719 12.917968-23.566406 12.703125-40.796875-.652344-73.015625 28.222656-79.949219 64.144531-5.121094 26.511719 3.066406 53.582031 21.898438 72.414062 18.886718 18.882813 45.984374 27.003907 72.425781 21.898438 31.011719-5.988281 56.09375-30.769531 62.421875-61.664062 2.035156-9.941407 2.269531-19.917969.695312-29.648438-1.042968-6.441406-1.109375-15.804688 4.476563-23.789062l16.550781-23.632813 16.546875 23.628906c5.589844 7.988281 5.519531 17.351563 4.480469 23.789063-1.574219 9.734375-1.339844 19.710937.695312 29.652344 6.324219 30.894531 31.410156 55.675781 62.421875 61.664062 5.203125 1.003906 10.425781 1.496094 15.605469 1.496094 21.214844 0 41.675781-8.257813 56.808594-23.390625 18.835937-18.828125 27.023437-45.902344 21.910156-72.421875-6.941406-35.949219-39.265625-64.875-79.96875-64.140625-9.015625.164062-17.859375-4.578125-23.550781-12.707031l-19.121094-27.304688h94.171875c16.542969 0 30-13.460938 30-30v-200c0-16.542969-13.457031-30-30-30zm-182.933594 331.898438c-7.359375 10.519531-10.144531 24.175781-7.839844 38.449218 1.1875 7.332032 1.003907 14.886719-.542968 22.445313-4.648438 22.703125-23.820313 41.636719-46.621094 46.039062-20.289062 3.914063-40.148438-2.0625-54.492188-16.40625-14.339843-14.339843-20.316406-34.195312-16.402343-54.480469 5.058593-26.203124 29.144531-48.445312 59.953125-47.9375 15.742187.296876 30.800781-7.644531 40.308594-21.230468 13.429687-19.179688 104.433593-149.140625 116.175781-165.914063 16.140625 17.035157 18.429687 43.460938 4.664062 63.082031-7.019531 10.023438-95.203125 135.953126-95.203125 135.953126zm130.949219-11.882813c33.804687 0 56.011719 23.039063 60.816406 47.929687 3.910157 20.285157-2.070312 40.148438-16.414062 54.488282-14.339844 14.335937-34.195313 20.3125-54.480469 16.398437-22.800781-4.402343-41.972656-23.335937-46.621094-46.035156-1.546875-7.5625-1.730468-15.117187-.542968-22.453125 2.304687-14.269531-.480469-27.925781-7.839844-38.449219l-20.726563-29.59375 24.414063-34.863281 21.945312 31.335938c9.339844 13.347656 24.039063 21.242187 39.449219 21.242187zm61.984375-90.015625c0 5.515625-4.484375 10-10 10h-94.164062l22.808593-32.574219c1.675781-2.386719 3.175781-4.871093 4.53125-7.425781h26.824219c5.523438 0 10-4.476562 10-10s-4.476562-10-10-10h-19.84375c3.1875-17.328125-.355469-35.230469-9.613281-50h29.457031c5.523438 0 10-4.476562 10-10s-4.476562-10-10-10h-48.421875c-.035156-.027344-.070313-.054688-.105469-.078125-2.171875-1.523437-4.863281-2.121094-7.476562-1.660156-2.613282.460937-4.9375 1.9375-6.457032 4.113281l-89.367187 127.625h-260.171875c-5.515625 0-10-4.484375-10-10v-200c0-5.515625 4.484375-10 10-10h282v10c0 5.523438 4.476562 10 10 10s10-4.476562 10-10v-10h150c5.515625 0 10 4.484375 10 10zm0 0"></path><path d="m322 60.5c-5.523438 0-10 4.476562-10 10v20c0 5.523438 4.476562 10 10 10s10-4.476562 10-10v-20c0-5.523438-4.476562-10-10-10zm0 0"></path><path d="m322 120.5c-5.523438 0-10 4.476562-10 10v20c0 5.523438 4.476562 10 10 10s10-4.476562 10-10v-20c0-5.523438-4.476562-10-10-10zm0 0"></path><path d="m262 180.5h-86c-5.523438 0-10 4.476562-10 10s4.476562 10 10 10h86c5.523438 0 10-4.476562 10-10s-4.476562-10-10-10zm0 0"></path><path d="m262 120.5h-86c-5.523438 0-10 4.476562-10 10s4.476562 10 10 10h86c5.523438 0 10-4.476562 10-10s-4.476562-10-10-10zm0 0"></path><path d="m442 60.5h-60c-5.523438 0-10 4.476562-10 10s4.476562 10 10 10h60c5.523438 0 10-4.476562 10-10s-4.476562-10-10-10zm0 0"></path><path d="m262 60.5h-46c-5.523438 0-10 4.476562-10 10s4.476562 10 10 10h46c5.523438 0 10-4.476562 10-10s-4.476562-10-10-10zm0 0"></path></svg> 