<?xml version="1.0" encoding="UTF-8"?> <!-- Generator: Adobe Illustrator 19.0.0, SVG Export Plug-In . SVG Version: 6.00 Build 0) --> <svg xmlns="http://www.w3.org/2000/svg" xmlns:xlink="http://www.w3.org/1999/xlink" id="Layer_1" x="0px" y="0px" viewBox="0 0 490.667 490.667" style="enable-background:new 0 0 490.667 490.667;" xml:space="preserve"> <g> <g> <g> <path d="M409.493,0H81.173c-30.08,0-54.507,24.427-54.507,54.507V436.16c0,30.08,24.427,54.507,54.507,54.507h328.32 c30.08,0,54.507-24.427,54.507-54.507V54.507C464,24.427,439.573,0,409.493,0z M442.667,436.16 c0,18.347-14.827,33.173-33.173,33.173H81.173C62.827,469.333,48,454.507,48,436.16V128h394.667V436.16z M442.667,106.667H48 v-52.16c0-18.347,14.827-33.173,33.173-33.173h328.32c18.347,0,33.173,14.827,33.173,33.173V106.667z"></path> <path d="M256,438.4c79.36,0,144-64.64,144-144s-64.64-144-144-144s-144,64.64-144,144S176.64,438.4,256,438.4z M256,171.733 c67.733,0,122.667,54.933,122.667,122.667S323.733,417.067,256,417.067S133.333,362.133,133.333,294.4 C133.44,226.667,188.267,171.84,256,171.733z"></path> <path d="M256,394.027c54.933,0,99.52-44.587,99.52-99.52c0-54.933-44.587-99.52-99.52-99.52s-99.52,44.587-99.52,99.52 C156.48,349.333,201.067,393.92,256,394.027z M256.32,216.213c43.84,0,79.253,36.053,78.187,80.107 c-0.96,41.493-34.773,75.307-76.267,76.267c-44.053,1.067-80.107-34.347-80.107-78.187 C178.24,251.2,213.227,216.32,256.32,216.213z"></path> <path d="M377.387,43.627c-11.947,0-21.547,9.707-21.44,21.653s9.707,21.547,21.653,21.44c11.84,0,21.44-9.707,21.44-21.547 C399.04,53.333,389.333,43.627,377.387,43.627z"></path> </g> </g> </g> <g> </g> <g> </g> <g> </g> <g> </g> <g> </g> <g> </g> <g> </g> <g> </g> <g> </g> <g> </g> <g> </g> <g> </g> <g> </g> <g> </g> <g> </g> </svg> 