<svg xmlns="http://www.w3.org/2000/svg" xmlns:xlink="http://www.w3.org/1999/xlink" preserveAspectRatio="xMidYMid" width="26" height="26" viewBox="0 0 26 26">
  <defs>
    <style>
      .cls-1 {
        fill: #ef4c31;
        fill-rule: evenodd;
      }
    </style>
  </defs>
  <path d="M13.000,26.000 C5.820,26.000 0.000,20.180 0.000,13.000 C0.000,5.820 5.820,0.000 13.000,0.000 C20.180,0.000 26.000,5.820 26.000,13.000 C26.000,20.180 20.180,26.000 13.000,26.000 ZM13.000,4.000 C8.029,4.000 4.000,8.029 4.000,13.000 C4.000,17.971 8.029,22.000 13.000,22.000 C17.971,22.000 22.000,17.971 22.000,13.000 C22.000,8.029 17.971,4.000 13.000,4.000 ZM13.000,18.000 C10.239,18.000 8.000,15.761 8.000,13.000 C8.000,10.239 10.239,8.000 13.000,8.000 C15.761,8.000 18.000,10.239 18.000,13.000 C18.000,15.761 15.761,18.000 13.000,18.000 Z" class="cls-1"/>
</svg>
