<?xml version="1.0" encoding="UTF-8"?>
<svg width="21px" height="15px" viewBox="0 0 21 15" version="1.1" xmlns="http://www.w3.org/2000/svg" xmlns:xlink="http://www.w3.org/1999/xlink">
    <!-- Generator: Sketch 51.2 (57519) - http://www.bohemiancoding.com/sketch -->
    <title>cloud_upload - material</title>
    <desc>Created with Sketch.</desc>
    <defs></defs>
    <g id="Page-1" stroke="none" stroke-width="1" fill="none" fill-rule="evenodd">
        <g id="Theme-Options---Final" transform="translate(-841.000000, -1128.000000)" fill="#FFFFFF">
            <g id="Options" transform="translate(434.000000, 139.000000)">
                <g id="Add-/-Remove-Copy" transform="translate(51.000000, 916.000000)">
                    <g id="Group-2" transform="translate(0.000000, 2.000000)">
                        <g id="Group-4" transform="translate(346.000000, 58.000000)">
                            <path d="M22.264,21.511 L24.889,21.511 L20.5,17.164 L16.111,21.511 L18.736,21.511 L18.736,25.039 L22.264,25.039 L22.264,21.511 Z M26.947,18.928 C27.6890037,18.9840003 28.3679969,19.211498 28.984,19.6105 C29.6000031,20.009502 30.0899982,20.5309968 30.454,21.175 C30.8180018,21.8190032 31,22.5189962 31,23.275 C31,24.073004 30.804002,24.8079966 30.412,25.48 C30.019998,26.1520034 29.4880034,26.683998 28.816,27.076 C28.1439966,27.468002 27.409004,27.664 26.611,27.664 L15.25,27.664 C14.2979952,27.664 13.419504,27.4295023 12.6145,26.9605 C11.809496,26.4914977 11.1725023,25.854504 10.7035,25.0495 C10.2344977,24.244496 10,23.3660048 10,22.414 C10,21.5319956 10.2064979,20.7095038 10.6195,19.9465 C11.0325021,19.1834962 11.5959964,18.5605024 12.31,18.0775 C13.0240036,17.5944976 13.8149957,17.3040005 14.683,17.206 C15.2430028,16.1279946 16.0339949,15.2670032 17.056,14.623 C18.1060052,13.9649967 19.2539938,13.636 20.5,13.636 C21.5500052,13.636 22.5299955,13.8669977 23.44,14.329 C24.3360045,14.7770022 25.0919969,15.403496 25.708,16.2085 C26.3240031,17.013504 26.736999,17.919995 26.947,18.928 Z" id="cloud_upload---material"></path>
                        </g>
                    </g>
                </g>
            </g>
        </g>
    </g>
</svg>