<svg xmlns="http://www.w3.org/2000/svg" width="110" height="78" viewBox="0 0 110 78">
  <g fill="none" fill-rule="evenodd">
    <rect width="110" height="78" fill="#FFF" rx="2"/>
    <path fill="#000" d="M69.8325893,30.2276786 C69.0100405,31.4308096 68.0156308,32.4559109 66.8493304,33.3030134 C66.8616072,33.4748893 66.8677455,33.7326992 66.8677455,34.0764509 C66.8677455,35.672441 66.6344889,37.265338 66.1679688,38.8551897 C65.7014486,40.4450414 64.9924713,41.9704168 64.0410156,43.4313616 C63.08956,44.8923064 61.9570378,46.1844252 60.6434152,47.3077567 C59.3297925,48.4310882 57.746103,49.3272846 55.8922991,49.9963728 C54.0384952,50.6654609 52.0558141,51 49.9441964,51 C46.6171709,51 43.5725585,50.1099419 40.8102679,48.3297991 C41.2399575,48.3789065 41.7187474,48.4034598 42.2466518,48.4034598 C45.0089424,48.4034598 47.4704133,47.5563701 49.6311384,45.8621652 C48.3420694,45.8376115 47.1880631,45.4416891 46.1690848,44.6743862 C45.1501065,43.9070832 44.4503367,42.9280193 44.0697545,41.7371652 C44.4748904,41.7985494 44.8493286,41.8292411 45.1930804,41.8292411 C45.7209848,41.8292411 46.242743,41.7617194 46.7583705,41.6266741 C45.3833637,41.3443066 44.2447032,40.6598827 43.3423549,39.5733817 C42.4400066,38.4868807 41.9888393,37.2254536 41.9888393,35.7890625 L41.9888393,35.7154018 C42.8236649,36.181922 43.7198613,36.4335936 44.6774554,36.4704241 C43.8671834,35.9302428 43.2226586,35.2243347 42.7438616,34.3526786 C42.2650646,33.4810224 42.0256696,32.5357194 42.0256696,31.5167411 C42.0256696,30.4363785 42.2957562,29.4358305 42.8359375,28.515067 C44.321436,30.3443172 46.1291746,31.8083092 48.2592076,32.9070871 C50.3892406,34.0058649 52.6696307,34.6166289 55.1004464,34.7393973 C55.0022317,34.2728771 54.953125,33.8186406 54.953125,33.3766741 C54.953125,31.7315766 55.5331973,30.3289679 56.6933594,29.1688058 C57.8535214,28.0086438 59.2561302,27.4285714 60.9012277,27.4285714 C62.6199863,27.4285714 64.0686325,28.0546812 65.2472098,29.3069196 C66.5853862,29.0491059 67.8437441,28.570316 69.0223214,27.8705357 C68.5680781,29.2823731 67.696435,30.3749961 66.4073661,31.1484375 C67.5491129,31.025669 68.6908425,30.7187525 69.8325893,30.2276786 Z"/>
  </g>
</svg>
