<svg xmlns="http://www.w3.org/2000/svg" width="110" height="60" viewBox="0 0 110 60">
  <g fill="none" fill-rule="evenodd">
    <rect width="110" height="60" fill="#FFF" rx="2"/>
    <rect width="50" height="1" x="30" y="37" fill="#000"/>
    <path fill="#000" fill-rule="nonzero" d="M30.166,27.044 C30.174,27.2680011 30.2259995,27.4579992 30.322,27.614 C30.4180005,27.7700008 30.5439992,27.8939995 30.7,27.986 C30.8560008,28.0780005 31.031999,28.1439998 31.228,28.184 C31.424001,28.2240002 31.625999,28.244 31.834,28.244 C31.9940008,28.244 32.1619991,28.2320001 32.338,28.208 C32.5140009,28.1839999 32.6759993,28.1400003 32.824,28.076 C32.9720007,28.0119997 33.0939995,27.9180006 33.19,27.794 C33.2860005,27.6699994 33.334,27.512001 33.334,27.32 C33.334,27.0559987 33.234001,26.8560007 33.034,26.72 C32.833999,26.5839993 32.5840015,26.4740004 32.284,26.39 C31.9839985,26.3059996 31.6580018,26.2300003 31.306,26.162 C30.9539982,26.0939997 30.6280015,25.9980006 30.328,25.874 C30.0279985,25.7499994 29.778001,25.5760011 29.578,25.352 C29.377999,25.1279989 29.278,24.816002 29.278,24.416 C29.278,24.1039984 29.3479993,23.8360011 29.488,23.612 C29.6280007,23.3879989 29.8079989,23.2060007 30.028,23.066 C30.2480011,22.9259993 30.4959986,22.8220003 30.772,22.754 C31.0480014,22.6859997 31.3219986,22.652 31.594,22.652 C31.9460018,22.652 32.2699985,22.6819997 32.566,22.742 C32.8620015,22.8020003 33.1239989,22.9059993 33.352,23.054 C33.5800011,23.2020007 33.7619993,23.4019987 33.898,23.654 C34.0340007,23.9060013 34.1139999,24.2199981 34.138,24.596 L33.118,24.596 C33.1019999,24.395999 33.0500004,24.2300007 32.962,24.098 C32.8739996,23.9659993 32.7620007,23.8600004 32.626,23.78 C32.4899993,23.6999996 32.3400008,23.6420002 32.176,23.606 C32.0119992,23.5699998 31.8460008,23.552 31.678,23.552 C31.5259992,23.552 31.3720008,23.5639999 31.216,23.588 C31.0599992,23.6120001 30.9180006,23.6539997 30.79,23.714 C30.6619994,23.7740003 30.5580004,23.8539995 30.478,23.954 C30.3979996,24.0540005 30.358,24.1839992 30.358,24.344 C30.358,24.5200009 30.4199994,24.6659994 30.544,24.782 C30.6680006,24.8980006 30.825999,24.9939996 31.018,25.07 C31.210001,25.1460004 31.4259988,25.2099997 31.666,25.262 C31.9060012,25.3140003 32.1459988,25.3679997 32.386,25.424 C32.6420013,25.4800003 32.8919988,25.5479996 33.136,25.628 C33.3800012,25.7080004 33.5959991,25.8139993 33.784,25.946 C33.9720009,26.0780007 34.1239994,26.243999 34.24,26.444 C34.3560006,26.644001 34.414,26.8919985 34.414,27.188 C34.414,27.5640019 34.3360008,27.8759988 34.18,28.124 C34.0239992,28.3720012 33.8200013,28.5719992 33.568,28.724 C33.3159987,28.8760008 33.0320016,28.9819997 32.716,29.042 C32.3999984,29.1020003 32.0860016,29.132 31.774,29.132 C31.4299983,29.132 31.1020016,29.0960004 30.79,29.024 C30.4779984,28.9519996 30.2020012,28.8340008 29.962,28.67 C29.7219988,28.5059992 29.5300007,28.2900013 29.386,28.022 C29.2419993,27.7539987 29.1620001,27.4280019 29.146,27.044 L30.166,27.044 Z M40.678,29 L39.718,29 L39.718,28.016 L39.694,28.016 C39.4779989,28.4000019 39.2020017,28.6819991 38.866,28.862 C38.5299983,29.0420009 38.1340023,29.132 37.678,29.132 C37.269998,29.132 36.9300014,29.0780005 36.658,28.97 C36.3859986,28.8619995 36.1660008,28.708001 35.998,28.508 C35.8299992,28.307999 35.7120003,28.0700014 35.644,27.794 C35.5759997,27.5179986 35.542,27.2120017 35.542,26.876 L35.542,22.796 L36.562,22.796 L36.562,26.996 C36.562,27.3800019 36.6739989,27.6839989 36.898,27.908 C37.1220011,28.1320011 37.429998,28.244 37.822,28.244 C38.1340016,28.244 38.4039989,28.1960005 38.632,28.1 C38.8600011,28.0039995 39.0499992,27.8680009 39.202,27.692 C39.3540008,27.5159991 39.4679996,27.3100012 39.544,27.074 C39.6200004,26.8379988 39.658,26.5800014 39.658,26.3 L39.658,22.796 L40.678,22.796 L40.678,29 Z M42.25,20.432 L43.27,20.432 L43.27,23.636 L43.294,23.636 C43.4620008,23.2919983 43.7259982,23.0420008 44.086,22.886 C44.4460018,22.7299992 44.8419978,22.652 45.274,22.652 C45.7540024,22.652 46.1719982,22.7399991 46.528,22.916 C46.8840018,23.0920009 47.1799988,23.3299985 47.416,23.63 C47.6520012,23.9300015 47.8299994,24.275998 47.95,24.668 C48.0700006,25.060002 48.13,25.4759978 48.13,25.916 C48.13,26.3560022 48.0720006,26.771998 47.956,27.164 C47.8399994,27.556002 47.6640012,27.8979985 47.428,28.19 C47.1919988,28.4820015 46.8960018,28.7119992 46.54,28.88 C46.1839982,29.0480008 45.7700024,29.132 45.298,29.132 C45.1459992,29.132 44.9760009,29.1160002 44.788,29.084 C44.5999991,29.0519998 44.4140009,29.0000004 44.23,28.928 C44.0459991,28.8559996 43.8720008,28.7580006 43.708,28.634 C43.5439992,28.5099994 43.4060006,28.3560009 43.294,28.172 L43.27,28.172 L43.27,29 L42.25,29 L42.25,20.432 Z M47.05,25.844 C47.05,25.5559986 47.0120004,25.2740014 46.936,24.998 C46.8599996,24.7219986 46.7440008,24.4760011 46.588,24.26 C46.4319992,24.0439989 46.2320012,23.8720006 45.988,23.744 C45.7439988,23.6159994 45.4580016,23.552 45.13,23.552 C44.7859983,23.552 44.4940012,23.6199993 44.254,23.756 C44.0139988,23.8920007 43.8180008,24.0699989 43.666,24.29 C43.5139992,24.5100011 43.4040003,24.7599986 43.336,25.04 C43.2679997,25.3200014 43.234,25.6039986 43.234,25.892 C43.234,26.1960015 43.2699996,26.4899986 43.342,26.774 C43.4140004,27.0580014 43.5279992,27.3079989 43.684,27.524 C43.8400008,27.7400011 44.0419988,27.9139993 44.29,28.046 C44.5380012,28.1780007 44.8379982,28.244 45.19,28.244 C45.5420018,28.244 45.8359988,28.1760007 46.072,28.04 C46.3080012,27.9039993 46.4979993,27.7240011 46.642,27.5 C46.7860007,27.2759989 46.8899997,27.0200014 46.954,26.732 C47.0180003,26.4439986 47.05,26.1480015 47.05,25.844 Z M49.954,27.044 C49.962,27.2680011 50.0139995,27.4579992 50.11,27.614 C50.2060005,27.7700008 50.3319992,27.8939995 50.488,27.986 C50.6440008,28.0780005 50.819999,28.1439998 51.016,28.184 C51.212001,28.2240002 51.413999,28.244 51.622,28.244 C51.7820008,28.244 51.9499991,28.2320001 52.126,28.208 C52.3020009,28.1839999 52.4639993,28.1400003 52.612,28.076 C52.7600007,28.0119997 52.8819995,27.9180006 52.978,27.794 C53.0740005,27.6699994 53.122,27.512001 53.122,27.32 C53.122,27.0559987 53.022001,26.8560007 52.822,26.72 C52.621999,26.5839993 52.3720015,26.4740004 52.072,26.39 C51.7719985,26.3059996 51.4460018,26.2300003 51.094,26.162 C50.7419982,26.0939997 50.4160015,25.9980006 50.116,25.874 C49.8159985,25.7499994 49.566001,25.5760011 49.366,25.352 C49.165999,25.1279989 49.066,24.816002 49.066,24.416 C49.066,24.1039984 49.1359993,23.8360011 49.276,23.612 C49.4160007,23.3879989 49.5959989,23.2060007 49.816,23.066 C50.0360011,22.9259993 50.2839986,22.8220003 50.56,22.754 C50.8360014,22.6859997 51.1099986,22.652 51.382,22.652 C51.7340018,22.652 52.0579985,22.6819997 52.354,22.742 C52.6500015,22.8020003 52.9119989,22.9059993 53.14,23.054 C53.3680011,23.2020007 53.5499993,23.4019987 53.686,23.654 C53.8220007,23.9060013 53.9019999,24.2199981 53.926,24.596 L52.906,24.596 C52.8899999,24.395999 52.8380004,24.2300007 52.75,24.098 C52.6619996,23.9659993 52.5500007,23.8600004 52.414,23.78 C52.2779993,23.6999996 52.1280008,23.6420002 51.964,23.606 C51.7999992,23.5699998 51.6340008,23.552 51.466,23.552 C51.3139992,23.552 51.1600008,23.5639999 51.004,23.588 C50.8479992,23.6120001 50.7060006,23.6539997 50.578,23.714 C50.4499994,23.7740003 50.3460004,23.8539995 50.266,23.954 C50.1859996,24.0540005 50.146,24.1839992 50.146,24.344 C50.146,24.5200009 50.2079994,24.6659994 50.332,24.782 C50.4560006,24.8980006 50.613999,24.9939996 50.806,25.07 C50.998001,25.1460004 51.2139988,25.2099997 51.454,25.262 C51.6940012,25.3140003 51.9339988,25.3679997 52.174,25.424 C52.4300013,25.4800003 52.6799988,25.5479996 52.924,25.628 C53.1680012,25.7080004 53.3839991,25.8139993 53.572,25.946 C53.7600009,26.0780007 53.9119994,26.243999 54.028,26.444 C54.1440006,26.644001 54.202,26.8919985 54.202,27.188 C54.202,27.5640019 54.1240008,27.8759988 53.968,28.124 C53.8119992,28.3720012 53.6080013,28.5719992 53.356,28.724 C53.1039987,28.8760008 52.8200016,28.9819997 52.504,29.042 C52.1879984,29.1020003 51.8740016,29.132 51.562,29.132 C51.2179983,29.132 50.8900016,29.0960004 50.578,29.024 C50.2659984,28.9519996 49.9900012,28.8340008 49.75,28.67 C49.5099988,28.5059992 49.3180007,28.2900013 49.174,28.022 C49.0299993,27.7539987 48.9500001,27.4280019 48.934,27.044 L49.954,27.044 Z M59.542,24.788 C59.4619996,24.395998 59.2940013,24.0920011 59.038,23.876 C58.7819987,23.6599989 58.4380022,23.552 58.006,23.552 C57.6379982,23.552 57.3300012,23.6199993 57.082,23.756 C56.8339988,23.8920007 56.6360007,24.0719989 56.488,24.296 C56.3399993,24.5200011 56.2340003,24.7779985 56.17,25.07 C56.1059997,25.3620015 56.074,25.6639984 56.074,25.976 C56.074,26.2640014 56.1079997,26.5439986 56.176,26.816 C56.2440003,27.0880014 56.3499993,27.3299989 56.494,27.542 C56.6380007,27.7540011 56.8259988,27.9239994 57.058,28.052 C57.2900012,28.1800006 57.5659984,28.244 57.886,28.244 C58.3900025,28.244 58.7839986,28.1120013 59.068,27.848 C59.3520014,27.5839987 59.5259997,27.2120024 59.59,26.732 L60.634,26.732 C60.5219994,27.5000038 60.2360023,28.0919979 59.776,28.508 C59.3159977,28.9240021 58.690004,29.132 57.898,29.132 C57.4259976,29.132 57.0080018,29.0560008 56.644,28.904 C56.2799982,28.7519992 55.9760012,28.5360014 55.732,28.256 C55.4879988,27.9759986 55.3040006,27.6420019 55.18,27.254 C55.0559994,26.8659981 54.994,26.4400023 54.994,25.976 C54.994,25.5119977 55.0539994,25.078002 55.174,24.674 C55.2940006,24.269998 55.4759988,23.9180015 55.72,23.618 C55.9640012,23.3179985 56.2699982,23.0820009 56.638,22.91 C57.0060018,22.7379991 57.4339976,22.652 57.922,22.652 C58.2740018,22.652 58.6039985,22.6939996 58.912,22.778 C59.2200015,22.8620004 59.4919988,22.9919991 59.728,23.168 C59.9640012,23.3440009 60.1579992,23.5659987 60.31,23.834 C60.4620008,24.1020013 60.5579998,24.4199982 60.598,24.788 L59.542,24.788 Z M61.738,22.796 L62.698,22.796 L62.698,24.104 L62.722,24.104 C62.9700012,23.5999975 63.2739982,23.2280012 63.634,22.988 C63.9940018,22.7479988 64.4499972,22.6359999 65.002,22.652 L65.002,23.732 C64.593998,23.732 64.2460014,23.7879994 63.958,23.9 C63.6699986,24.0120006 63.4380009,24.1759989 63.262,24.392 C63.0859991,24.6080011 62.9580004,24.8699985 62.878,25.178 C62.7979996,25.4860015 62.758,25.839998 62.758,26.24 L62.758,29 L61.738,29 L61.738,22.796 Z M66.85,21.68 L65.83,21.68 L65.83,20.432 L66.85,20.432 L66.85,21.68 Z M65.83,22.796 L66.85,22.796 L66.85,29 L65.83,29 L65.83,22.796 Z M68.47,20.432 L69.49,20.432 L69.49,23.636 L69.514,23.636 C69.6820008,23.2919983 69.9459982,23.0420008 70.306,22.886 C70.6660018,22.7299992 71.0619978,22.652 71.494,22.652 C71.9740024,22.652 72.3919982,22.7399991 72.748,22.916 C73.1040018,23.0920009 73.3999988,23.3299985 73.636,23.63 C73.8720012,23.9300015 74.0499994,24.275998 74.17,24.668 C74.2900006,25.060002 74.35,25.4759978 74.35,25.916 C74.35,26.3560022 74.2920006,26.771998 74.176,27.164 C74.0599994,27.556002 73.8840012,27.8979985 73.648,28.19 C73.4119988,28.4820015 73.1160018,28.7119992 72.76,28.88 C72.4039982,29.0480008 71.9900024,29.132 71.518,29.132 C71.3659992,29.132 71.1960009,29.1160002 71.008,29.084 C70.8199991,29.0519998 70.6340009,29.0000004 70.45,28.928 C70.2659991,28.8559996 70.0920008,28.7580006 69.928,28.634 C69.7639992,28.5099994 69.6260006,28.3560009 69.514,28.172 L69.49,28.172 L69.49,29 L68.47,29 L68.47,20.432 Z M73.27,25.844 C73.27,25.5559986 73.2320004,25.2740014 73.156,24.998 C73.0799996,24.7219986 72.9640008,24.4760011 72.808,24.26 C72.6519992,24.0439989 72.4520012,23.8720006 72.208,23.744 C71.9639988,23.6159994 71.6780016,23.552 71.35,23.552 C71.0059983,23.552 70.7140012,23.6199993 70.474,23.756 C70.2339988,23.8920007 70.0380008,24.0699989 69.886,24.29 C69.7339992,24.5100011 69.6240003,24.7599986 69.556,25.04 C69.4879997,25.3200014 69.454,25.6039986 69.454,25.892 C69.454,26.1960015 69.4899996,26.4899986 69.562,26.774 C69.6340004,27.0580014 69.7479992,27.3079989 69.904,27.524 C70.0600008,27.7400011 70.2619988,27.9139993 70.51,28.046 C70.7580012,28.1780007 71.0579982,28.244 71.41,28.244 C71.7620018,28.244 72.0559988,28.1760007 72.292,28.04 C72.5280012,27.9039993 72.7179993,27.7240011 72.862,27.5 C73.0060007,27.2759989 73.1099997,27.0200014 73.174,26.732 C73.2380003,26.4439986 73.27,26.1480015 73.27,25.844 Z M79.858,25.304 C79.8419999,25.0639988 79.7880005,24.8360011 79.696,24.62 C79.6039995,24.4039989 79.4800008,24.2180008 79.324,24.062 C79.1679992,23.9059992 78.9840011,23.7820005 78.772,23.69 C78.5599989,23.5979995 78.3260013,23.552 78.07,23.552 C77.8059987,23.552 77.5680011,23.5979995 77.356,23.69 C77.1439989,23.7820005 76.9620008,23.9079992 76.81,24.068 C76.6579992,24.2280008 76.5380004,24.4139989 76.45,24.626 C76.3619996,24.8380011 76.3100001,25.0639988 76.294,25.304 L79.858,25.304 Z M80.842,27.032 C80.7059993,27.7280035 80.4060023,28.2519982 79.942,28.604 C79.4779977,28.9560018 78.8940035,29.132 78.19,29.132 C77.6939975,29.132 77.2640018,29.0520008 76.9,28.892 C76.5359982,28.7319992 76.2300012,28.5080014 75.982,28.22 C75.7339988,27.9319986 75.5480006,27.588002 75.424,27.188 C75.2999994,26.787998 75.2300001,26.3520024 75.214,25.88 C75.214,25.4079976 75.2859993,24.976002 75.43,24.584 C75.5740007,24.191998 75.7759987,23.8520014 76.036,23.564 C76.2960013,23.2759986 76.6039982,23.0520008 76.96,22.892 C77.3160018,22.7319992 77.7059979,22.652 78.13,22.652 C78.6820028,22.652 79.1399982,22.7659989 79.504,22.994 C79.8680018,23.2220011 80.1599989,23.5119982 80.38,23.864 C80.6000011,24.2160018 80.7519996,24.5999979 80.836,25.016 C80.9200004,25.4320021 80.9540001,25.8279981 80.938,26.204 L76.294,26.204 C76.286,26.4760014 76.3179996,26.7339988 76.39,26.978 C76.4620004,27.2220012 76.5779992,27.4379991 76.738,27.626 C76.8980008,27.8140009 77.1019988,27.9639994 77.35,28.076 C77.5980012,28.1880006 77.8899983,28.244 78.226,28.244 C78.6580022,28.244 79.0119986,28.144001 79.288,27.944 C79.5640014,27.743999 79.7459996,27.440002 79.834,27.032 L80.842,27.032 Z"/>
  </g>
</svg>
