<svg xmlns="http://www.w3.org/2000/svg" width="110" height="60" viewBox="0 0 110 60">
  <g fill="none" fill-rule="evenodd">
    <rect width="110" height="60" fill="#FFF" rx="2"/>
    <rect width="91" height="30" x="9.5" y="14.5" stroke="#979797"/>
    <path fill="#000" fill-rule="nonzero" d="M23.124,29.304 C23.1079999,29.0639988 23.0540005,28.8360011 22.962,28.62 C22.8699995,28.4039989 22.7460008,28.2180008 22.59,28.062 C22.4339992,27.9059992 22.2500011,27.7820005 22.038,27.69 C21.8259989,27.5979995 21.5920013,27.552 21.336,27.552 C21.0719987,27.552 20.8340011,27.5979995 20.622,27.69 C20.4099989,27.7820005 20.2280008,27.9079992 20.076,28.068 C19.9239992,28.2280008 19.8040004,28.4139989 19.716,28.626 C19.6279996,28.8380011 19.5760001,29.0639988 19.56,29.304 L23.124,29.304 Z M24.108,31.032 C23.9719993,31.7280035 23.6720023,32.2519982 23.208,32.604 C22.7439977,32.9560018 22.1600035,33.132 21.456,33.132 C20.9599975,33.132 20.5300018,33.0520008 20.166,32.892 C19.8019982,32.7319992 19.4960012,32.5080014 19.248,32.22 C18.9999988,31.9319986 18.8140006,31.588002 18.69,31.188 C18.5659994,30.787998 18.4960001,30.3520024 18.48,29.88 C18.48,29.4079976 18.5519993,28.976002 18.696,28.584 C18.8400007,28.191998 19.0419987,27.8520014 19.302,27.564 C19.5620013,27.2759986 19.8699982,27.0520008 20.226,26.892 C20.5820018,26.7319992 20.9719979,26.652 21.396,26.652 C21.9480028,26.652 22.4059982,26.7659989 22.77,26.994 C23.1340018,27.2220011 23.4259989,27.5119982 23.646,27.864 C23.8660011,28.2160018 24.0179996,28.5999979 24.102,29.016 C24.1860004,29.4320021 24.2200001,29.8279981 24.204,30.204 L19.56,30.204 C19.552,30.4760014 19.5839996,30.7339988 19.656,30.978 C19.7280004,31.2220012 19.8439992,31.4379991 20.004,31.626 C20.1640008,31.8140009 20.3679988,31.9639994 20.616,32.076 C20.8640012,32.1880006 21.1559983,32.244 21.492,32.244 C21.9240022,32.244 22.2779986,32.144001 22.554,31.944 C22.8300014,31.743999 23.0119996,31.440002 23.1,31.032 L24.108,31.032 Z M25.26,26.796 L26.22,26.796 L26.22,27.708 L26.244,27.708 C26.7080023,27.0039965 27.3759956,26.652 28.248,26.652 C28.6320019,26.652 28.9799984,26.7319992 29.292,26.892 C29.6040016,27.0520008 29.8239994,27.3239981 29.952,27.708 C30.160001,27.3719983 30.4339983,27.1120009 30.774,26.928 C31.1140017,26.7439991 31.487998,26.652 31.896,26.652 C32.2080016,26.652 32.4899987,26.6859997 32.742,26.754 C32.9940013,26.8220003 33.2099991,26.9279993 33.39,27.072 C33.5700009,27.2160007 33.7099995,27.4019989 33.81,27.63 C33.9100005,27.8580011 33.96,28.1319984 33.96,28.452 L33.96,33 L32.94,33 L32.94,28.932 C32.94,28.739999 32.9240002,28.5600008 32.892,28.392 C32.8599998,28.2239992 32.8000004,28.0780006 32.712,27.954 C32.6239996,27.8299994 32.5020008,27.7320004 32.346,27.66 C32.1899992,27.5879996 31.9880012,27.552 31.74,27.552 C31.2359975,27.552 30.8400014,27.6959986 30.552,27.984 C30.2639986,28.2720014 30.12,28.6559976 30.12,29.136 L30.12,33 L29.1,33 L29.1,28.932 C29.1,28.731999 29.0820002,28.5480008 29.046,28.38 C29.0099998,28.2119992 28.9480004,28.0660006 28.86,27.942 C28.7719996,27.8179994 28.6540007,27.7220003 28.506,27.654 C28.3579993,27.5859997 28.1680012,27.552 27.936,27.552 C27.6399985,27.552 27.3860011,27.6119994 27.174,27.732 C26.9619989,27.8520006 26.7900007,27.9959992 26.658,28.164 C26.5259993,28.3320008 26.4300003,28.5059991 26.37,28.686 C26.3099997,28.8660009 26.28,29.0159994 26.28,29.136 L26.28,33 L25.26,33 L25.26,26.796 Z M40.992,32.976 C40.8159991,33.0800005 40.5720016,33.132 40.26,33.132 C39.9959987,33.132 39.7860008,33.0580007 39.63,32.91 C39.4739992,32.7619993 39.396,32.5200017 39.396,32.184 C39.1159986,32.5200017 38.7900019,32.7619993 38.418,32.91 C38.0459981,33.0580007 37.6440022,33.132 37.212,33.132 C36.9319986,33.132 36.6660013,33.1000003 36.414,33.036 C36.1619987,32.9719997 35.9440009,32.8720007 35.76,32.736 C35.5759991,32.5999993 35.4300005,32.4220011 35.322,32.202 C35.2139995,31.9819989 35.16,31.7160016 35.16,31.404 C35.16,31.0519982 35.2199994,30.7640011 35.34,30.54 C35.4600006,30.3159989 35.617999,30.1340007 35.814,29.994 C36.010001,29.8539993 36.2339987,29.7480004 36.486,29.676 C36.7380013,29.6039996 36.9959987,29.5440002 37.26,29.496 C37.5400014,29.4399997 37.8059987,29.3980001 38.058,29.37 C38.3100013,29.3419999 38.531999,29.3020003 38.724,29.25 C38.916001,29.1979997 39.0679994,29.1220005 39.18,29.022 C39.2920006,28.9219995 39.348,28.776001 39.348,28.584 C39.348,28.3599989 39.3060004,28.1800007 39.222,28.044 C39.1379996,27.9079993 39.0300007,27.8040004 38.898,27.732 C38.7659993,27.6599996 38.6180008,27.6120001 38.454,27.588 C38.2899992,27.5639999 38.1280008,27.552 37.968,27.552 C37.5359978,27.552 37.1760014,27.6339992 36.888,27.798 C36.5999986,27.9620008 36.4440001,28.2719977 36.42,28.728 L35.4,28.728 C35.4160001,28.3439981 35.4959993,28.0200013 35.64,27.756 C35.7840007,27.4919987 35.9759988,27.2780008 36.216,27.114 C36.4560012,26.9499992 36.7299985,26.8320004 37.038,26.76 C37.3460015,26.6879996 37.6759982,26.652 38.028,26.652 C38.3080014,26.652 38.5859986,26.6719998 38.862,26.712 C39.1380014,26.7520002 39.3879989,26.8339994 39.612,26.958 C39.8360011,27.0820006 40.0159993,27.2559989 40.152,27.48 C40.2880007,27.7040011 40.356,27.9959982 40.356,28.356 L40.356,31.548 C40.356,31.7880012 40.3699999,31.9639994 40.398,32.076 C40.4260001,32.1880006 40.5199992,32.244 40.68,32.244 C40.7680004,32.244 40.8719994,32.2240002 40.992,32.184 L40.992,32.976 Z M39.336,29.796 C39.2079994,29.8920005 39.040001,29.9619998 38.832,30.006 C38.623999,30.0500002 38.4060011,30.0859999 38.178,30.114 C37.9499989,30.1420001 37.7200012,30.1739998 37.488,30.21 C37.2559988,30.2460002 37.0480009,30.3039996 36.864,30.384 C36.6799991,30.4640004 36.5300006,30.5779993 36.414,30.726 C36.2979994,30.8740007 36.24,31.0759987 36.24,31.332 C36.24,31.5000008 36.2739997,31.6419994 36.342,31.758 C36.4100003,31.8740006 36.4979995,31.9679996 36.606,32.04 C36.7140005,32.1120004 36.8399993,32.1639998 36.984,32.196 C37.1280007,32.2280002 37.2799992,32.244 37.44,32.244 C37.7760017,32.244 38.0639988,32.1980005 38.304,32.106 C38.5440012,32.0139995 38.7399992,31.8980007 38.892,31.758 C39.0440008,31.6179993 39.1559996,31.4660008 39.228,31.302 C39.3000004,31.1379992 39.336,30.9840007 39.336,30.84 L39.336,29.796 Z M43.02,25.68 L42,25.68 L42,24.432 L43.02,24.432 L43.02,25.68 Z M42,26.796 L43.02,26.796 L43.02,33 L42,33 L42,26.796 Z M44.664,24.432 L45.684,24.432 L45.684,33 L44.664,33 L44.664,24.432 Z M56.1,32.976 C55.9239991,33.0800005 55.6800016,33.132 55.368,33.132 C55.1039987,33.132 54.8940008,33.0580007 54.738,32.91 C54.5819992,32.7619993 54.504,32.5200017 54.504,32.184 C54.2239986,32.5200017 53.8980019,32.7619993 53.526,32.91 C53.1539981,33.0580007 52.7520022,33.132 52.32,33.132 C52.0399986,33.132 51.7740013,33.1000003 51.522,33.036 C51.2699987,32.9719997 51.0520009,32.8720007 50.868,32.736 C50.6839991,32.5999993 50.5380005,32.4220011 50.43,32.202 C50.3219995,31.9819989 50.268,31.7160016 50.268,31.404 C50.268,31.0519982 50.3279994,30.7640011 50.448,30.54 C50.5680006,30.3159989 50.725999,30.1340007 50.922,29.994 C51.118001,29.8539993 51.3419987,29.7480004 51.594,29.676 C51.8460013,29.6039996 52.1039987,29.5440002 52.368,29.496 C52.6480014,29.4399997 52.9139987,29.3980001 53.166,29.37 C53.4180013,29.3419999 53.639999,29.3020003 53.832,29.25 C54.024001,29.1979997 54.1759994,29.1220005 54.288,29.022 C54.4000006,28.9219995 54.456,28.776001 54.456,28.584 C54.456,28.3599989 54.4140004,28.1800007 54.33,28.044 C54.2459996,27.9079993 54.1380007,27.8040004 54.006,27.732 C53.8739993,27.6599996 53.7260008,27.6120001 53.562,27.588 C53.3979992,27.5639999 53.2360008,27.552 53.076,27.552 C52.6439978,27.552 52.2840014,27.6339992 51.996,27.798 C51.7079986,27.9620008 51.5520001,28.2719977 51.528,28.728 L50.508,28.728 C50.5240001,28.3439981 50.6039993,28.0200013 50.748,27.756 C50.8920007,27.4919987 51.0839988,27.2780008 51.324,27.114 C51.5640012,26.9499992 51.8379985,26.8320004 52.146,26.76 C52.4540015,26.6879996 52.7839982,26.652 53.136,26.652 C53.4160014,26.652 53.6939986,26.6719998 53.97,26.712 C54.2460014,26.7520002 54.4959989,26.8339994 54.72,26.958 C54.9440011,27.0820006 55.1239993,27.2559989 55.26,27.48 C55.3960007,27.7040011 55.464,27.9959982 55.464,28.356 L55.464,31.548 C55.464,31.7880012 55.4779999,31.9639994 55.506,32.076 C55.5340001,32.1880006 55.6279992,32.244 55.788,32.244 C55.8760004,32.244 55.9799994,32.2240002 56.1,32.184 L56.1,32.976 Z M54.444,29.796 C54.3159994,29.8920005 54.148001,29.9619998 53.94,30.006 C53.731999,30.0500002 53.5140011,30.0859999 53.286,30.114 C53.0579989,30.1420001 52.8280012,30.1739998 52.596,30.21 C52.3639988,30.2460002 52.1560009,30.3039996 51.972,30.384 C51.7879991,30.4640004 51.6380006,30.5779993 51.522,30.726 C51.4059994,30.8740007 51.348,31.0759987 51.348,31.332 C51.348,31.5000008 51.3819997,31.6419994 51.45,31.758 C51.5180003,31.8740006 51.6059995,31.9679996 51.714,32.04 C51.8220005,32.1120004 51.9479993,32.1639998 52.092,32.196 C52.2360007,32.2280002 52.3879992,32.244 52.548,32.244 C52.8840017,32.244 53.1719988,32.1980005 53.412,32.106 C53.6520012,32.0139995 53.8479992,31.8980007 54,31.758 C54.1520008,31.6179993 54.2639996,31.4660008 54.336,31.302 C54.4080004,31.1379992 54.444,30.9840007 54.444,30.84 L54.444,29.796 Z M57.792,29.952 C57.792,30.2400014 57.8299996,30.5219986 57.906,30.798 C57.9820004,31.0740014 58.0979992,31.3199989 58.254,31.536 C58.4100008,31.7520011 58.6099988,31.9239994 58.854,32.052 C59.0980012,32.1800006 59.3839984,32.244 59.712,32.244 C60.0560017,32.244 60.3479988,32.1760007 60.588,32.04 C60.8280012,31.9039993 61.0239992,31.7260011 61.176,31.506 C61.3280008,31.2859989 61.4379997,31.0360014 61.506,30.756 C61.5740003,30.4759986 61.608,30.1920014 61.608,29.904 C61.608,29.5999985 61.5720004,29.3060014 61.5,29.022 C61.4279996,28.7379986 61.3140008,28.4880011 61.158,28.272 C61.0019992,28.0559989 60.8000012,27.8820007 60.552,27.75 C60.3039988,27.6179993 60.0040018,27.552 59.652,27.552 C59.3079983,27.552 59.0160012,27.6199993 58.776,27.756 C58.5359988,27.8920007 58.3440007,28.0719989 58.2,28.296 C58.0559993,28.5200011 57.9520003,28.7759986 57.888,29.064 C57.8239997,29.3520014 57.792,29.6479985 57.792,29.952 Z M62.592,33 L61.572,33 L61.572,32.16 L61.548,32.16 C61.3799992,32.5040017 61.1160018,32.7519992 60.756,32.904 C60.3959982,33.0560008 60.0000022,33.132 59.568,33.132 C59.0879976,33.132 58.6700018,33.0440009 58.314,32.868 C57.9579982,32.6919991 57.6620012,32.4560015 57.426,32.16 C57.1899988,31.8639985 57.0120006,31.520002 56.892,31.128 C56.7719994,30.735998 56.712,30.3200022 56.712,29.88 C56.712,29.4399978 56.7699994,29.024002 56.886,28.632 C57.0020006,28.239998 57.1779988,27.8980015 57.414,27.606 C57.6500012,27.3139985 57.9459982,27.0820009 58.302,26.91 C58.6580018,26.7379991 59.0719976,26.652 59.544,26.652 C59.7040008,26.652 59.8759991,26.6679998 60.06,26.7 C60.2440009,26.7320002 60.4279991,26.7859996 60.612,26.862 C60.7960009,26.9380004 60.9699992,27.0379994 61.134,27.162 C61.2980008,27.2860006 61.4359994,27.4399991 61.548,27.624 L61.572,27.624 L61.572,24.432 L62.592,24.432 L62.592,33 Z M64.908,29.952 C64.908,30.2400014 64.9459996,30.5219986 65.022,30.798 C65.0980004,31.0740014 65.2139992,31.3199989 65.37,31.536 C65.5260008,31.7520011 65.7259988,31.9239994 65.97,32.052 C66.2140012,32.1800006 66.4999984,32.244 66.828,32.244 C67.1720017,32.244 67.4639988,32.1760007 67.704,32.04 C67.9440012,31.9039993 68.1399992,31.7260011 68.292,31.506 C68.4440008,31.2859989 68.5539997,31.0360014 68.622,30.756 C68.6900003,30.4759986 68.724,30.1920014 68.724,29.904 C68.724,29.5999985 68.6880004,29.3060014 68.616,29.022 C68.5439996,28.7379986 68.4300008,28.4880011 68.274,28.272 C68.1179992,28.0559989 67.9160012,27.8820007 67.668,27.75 C67.4199988,27.6179993 67.1200018,27.552 66.768,27.552 C66.4239983,27.552 66.1320012,27.6199993 65.892,27.756 C65.6519988,27.8920007 65.4600007,28.0719989 65.316,28.296 C65.1719993,28.5200011 65.0680003,28.7759986 65.004,29.064 C64.9399997,29.3520014 64.908,29.6479985 64.908,29.952 Z M69.708,33 L68.688,33 L68.688,32.16 L68.664,32.16 C68.4959992,32.5040017 68.2320018,32.7519992 67.872,32.904 C67.5119982,33.0560008 67.1160022,33.132 66.684,33.132 C66.2039976,33.132 65.7860018,33.0440009 65.43,32.868 C65.0739982,32.6919991 64.7780012,32.4560015 64.542,32.16 C64.3059988,31.8639985 64.1280006,31.520002 64.008,31.128 C63.8879994,30.735998 63.828,30.3200022 63.828,29.88 C63.828,29.4399978 63.8859994,29.024002 64.002,28.632 C64.1180006,28.239998 64.2939988,27.8980015 64.53,27.606 C64.7660012,27.3139985 65.0619982,27.0820009 65.418,26.91 C65.7740018,26.7379991 66.1879976,26.652 66.66,26.652 C66.8200008,26.652 66.9919991,26.6679998 67.176,26.7 C67.3600009,26.7320002 67.5439991,26.7859996 67.728,26.862 C67.9120009,26.9380004 68.0859992,27.0379994 68.25,27.162 C68.4140008,27.2860006 68.5519994,27.4399991 68.664,27.624 L68.688,27.624 L68.688,24.432 L69.708,24.432 L69.708,33 Z M71.244,26.796 L72.204,26.796 L72.204,28.104 L72.228,28.104 C72.4760012,27.5999975 72.7799982,27.2280012 73.14,26.988 C73.5000018,26.7479988 73.9559972,26.6359999 74.508,26.652 L74.508,27.732 C74.099998,27.732 73.7520014,27.7879994 73.464,27.9 C73.1759986,28.0120006 72.9440009,28.1759989 72.768,28.392 C72.5919991,28.6080011 72.4640004,28.8699985 72.384,29.178 C72.3039996,29.4860015 72.264,29.839998 72.264,30.24 L72.264,33 L71.244,33 L71.244,26.796 Z M79.584,29.304 C79.5679999,29.0639988 79.5140005,28.8360011 79.422,28.62 C79.3299995,28.4039989 79.2060008,28.2180008 79.05,28.062 C78.8939992,27.9059992 78.7100011,27.7820005 78.498,27.69 C78.2859989,27.5979995 78.0520013,27.552 77.796,27.552 C77.5319987,27.552 77.2940011,27.5979995 77.082,27.69 C76.8699989,27.7820005 76.6880008,27.9079992 76.536,28.068 C76.3839992,28.2280008 76.2640004,28.4139989 76.176,28.626 C76.0879996,28.8380011 76.0360001,29.0639988 76.02,29.304 L79.584,29.304 Z M80.568,31.032 C80.4319993,31.7280035 80.1320023,32.2519982 79.668,32.604 C79.2039977,32.9560018 78.6200035,33.132 77.916,33.132 C77.4199975,33.132 76.9900018,33.0520008 76.626,32.892 C76.2619982,32.7319992 75.9560012,32.5080014 75.708,32.22 C75.4599988,31.9319986 75.2740006,31.588002 75.15,31.188 C75.0259994,30.787998 74.9560001,30.3520024 74.94,29.88 C74.94,29.4079976 75.0119993,28.976002 75.156,28.584 C75.3000007,28.191998 75.5019987,27.8520014 75.762,27.564 C76.0220013,27.2759986 76.3299982,27.0520008 76.686,26.892 C77.0420018,26.7319992 77.4319979,26.652 77.856,26.652 C78.4080028,26.652 78.8659982,26.7659989 79.23,26.994 C79.5940018,27.2220011 79.8859989,27.5119982 80.106,27.864 C80.3260011,28.2160018 80.4779996,28.5999979 80.562,29.016 C80.6460004,29.4320021 80.6800001,29.8279981 80.664,30.204 L76.02,30.204 C76.012,30.4760014 76.0439996,30.7339988 76.116,30.978 C76.1880004,31.2220012 76.3039992,31.4379991 76.464,31.626 C76.6240008,31.8140009 76.8279988,31.9639994 77.076,32.076 C77.3240012,32.1880006 77.6159983,32.244 77.952,32.244 C78.3840022,32.244 78.7379986,32.144001 79.014,31.944 C79.2900014,31.743999 79.4719996,31.440002 79.56,31.032 L80.568,31.032 Z M82.344,31.044 C82.352,31.2680011 82.4039995,31.4579992 82.5,31.614 C82.5960005,31.7700008 82.7219992,31.8939995 82.878,31.986 C83.0340008,32.0780005 83.209999,32.1439998 83.406,32.184 C83.602001,32.2240002 83.803999,32.244 84.012,32.244 C84.1720008,32.244 84.3399991,32.2320001 84.516,32.208 C84.6920009,32.1839999 84.8539993,32.1400003 85.002,32.076 C85.1500007,32.0119997 85.2719995,31.9180006 85.368,31.794 C85.4640005,31.6699994 85.512,31.512001 85.512,31.32 C85.512,31.0559987 85.412001,30.8560007 85.212,30.72 C85.011999,30.5839993 84.7620015,30.4740004 84.462,30.39 C84.1619985,30.3059996 83.8360018,30.2300003 83.484,30.162 C83.1319982,30.0939997 82.8060015,29.9980006 82.506,29.874 C82.2059985,29.7499994 81.956001,29.5760011 81.756,29.352 C81.555999,29.1279989 81.456,28.816002 81.456,28.416 C81.456,28.1039984 81.5259993,27.8360011 81.666,27.612 C81.8060007,27.3879989 81.9859989,27.2060007 82.206,27.066 C82.4260011,26.9259993 82.6739986,26.8220003 82.95,26.754 C83.2260014,26.6859997 83.4999986,26.652 83.772,26.652 C84.1240018,26.652 84.4479985,26.6819997 84.744,26.742 C85.0400015,26.8020003 85.3019989,26.9059993 85.53,27.054 C85.7580011,27.2020007 85.9399993,27.4019987 86.076,27.654 C86.2120007,27.9060013 86.2919999,28.2199981 86.316,28.596 L85.296,28.596 C85.2799999,28.395999 85.2280004,28.2300007 85.14,28.098 C85.0519996,27.9659993 84.9400007,27.8600004 84.804,27.78 C84.6679993,27.6999996 84.5180008,27.6420002 84.354,27.606 C84.1899992,27.5699998 84.0240008,27.552 83.856,27.552 C83.7039992,27.552 83.5500008,27.5639999 83.394,27.588 C83.2379992,27.6120001 83.0960006,27.6539997 82.968,27.714 C82.8399994,27.7740003 82.7360004,27.8539995 82.656,27.954 C82.5759996,28.0540005 82.536,28.1839992 82.536,28.344 C82.536,28.5200009 82.5979994,28.6659994 82.722,28.782 C82.8460006,28.8980006 83.003999,28.9939996 83.196,29.07 C83.388001,29.1460004 83.6039988,29.2099997 83.844,29.262 C84.0840012,29.3140003 84.3239988,29.3679997 84.564,29.424 C84.8200013,29.4800003 85.0699988,29.5479996 85.314,29.628 C85.5580012,29.7080004 85.7739991,29.8139993 85.962,29.946 C86.1500009,30.0780007 86.3019994,30.243999 86.418,30.444 C86.5340006,30.644001 86.592,30.8919985 86.592,31.188 C86.592,31.5640019 86.5140008,31.8759988 86.358,32.124 C86.2019992,32.3720012 85.9980013,32.5719992 85.746,32.724 C85.4939987,32.8760008 85.2100016,32.9819997 84.894,33.042 C84.5779984,33.1020003 84.2640016,33.132 83.952,33.132 C83.6079983,33.132 83.2800016,33.0960004 82.968,33.024 C82.6559984,32.9519996 82.3800012,32.8340008 82.14,32.67 C81.8999988,32.5059992 81.7080007,32.2900013 81.564,32.022 C81.4199993,31.7539987 81.3400001,31.4280019 81.324,31.044 L82.344,31.044 Z M88.344,31.044 C88.352,31.2680011 88.4039995,31.4579992 88.5,31.614 C88.5960005,31.7700008 88.7219992,31.8939995 88.878,31.986 C89.0340008,32.0780005 89.209999,32.1439998 89.406,32.184 C89.602001,32.2240002 89.803999,32.244 90.012,32.244 C90.1720008,32.244 90.3399991,32.2320001 90.516,32.208 C90.6920009,32.1839999 90.8539993,32.1400003 91.002,32.076 C91.1500007,32.0119997 91.2719995,31.9180006 91.368,31.794 C91.4640005,31.6699994 91.512,31.512001 91.512,31.32 C91.512,31.0559987 91.412001,30.8560007 91.212,30.72 C91.011999,30.5839993 90.7620015,30.4740004 90.462,30.39 C90.1619985,30.3059996 89.8360018,30.2300003 89.484,30.162 C89.1319982,30.0939997 88.8060015,29.9980006 88.506,29.874 C88.2059985,29.7499994 87.956001,29.5760011 87.756,29.352 C87.555999,29.1279989 87.456,28.816002 87.456,28.416 C87.456,28.1039984 87.5259993,27.8360011 87.666,27.612 C87.8060007,27.3879989 87.9859989,27.2060007 88.206,27.066 C88.4260011,26.9259993 88.6739986,26.8220003 88.95,26.754 C89.2260014,26.6859997 89.4999986,26.652 89.772,26.652 C90.1240018,26.652 90.4479985,26.6819997 90.744,26.742 C91.0400015,26.8020003 91.3019989,26.9059993 91.53,27.054 C91.7580011,27.2020007 91.9399993,27.4019987 92.076,27.654 C92.2120007,27.9060013 92.2919999,28.2199981 92.316,28.596 L91.296,28.596 C91.2799999,28.395999 91.2280004,28.2300007 91.14,28.098 C91.0519996,27.9659993 90.9400007,27.8600004 90.804,27.78 C90.6679993,27.6999996 90.5180008,27.6420002 90.354,27.606 C90.1899992,27.5699998 90.0240008,27.552 89.856,27.552 C89.7039992,27.552 89.5500008,27.5639999 89.394,27.588 C89.2379992,27.6120001 89.0960006,27.6539997 88.968,27.714 C88.8399994,27.7740003 88.7360004,27.8539995 88.656,27.954 C88.5759996,28.0540005 88.536,28.1839992 88.536,28.344 C88.536,28.5200009 88.5979994,28.6659994 88.722,28.782 C88.8460006,28.8980006 89.003999,28.9939996 89.196,29.07 C89.388001,29.1460004 89.6039988,29.2099997 89.844,29.262 C90.0840012,29.3140003 90.3239988,29.3679997 90.564,29.424 C90.8200013,29.4800003 91.0699988,29.5479996 91.314,29.628 C91.5580012,29.7080004 91.7739991,29.8139993 91.962,29.946 C92.1500009,30.0780007 92.3019994,30.243999 92.418,30.444 C92.5340006,30.644001 92.592,30.8919985 92.592,31.188 C92.592,31.5640019 92.5140008,31.8759988 92.358,32.124 C92.2019992,32.3720012 91.9980013,32.5719992 91.746,32.724 C91.4939987,32.8760008 91.2100016,32.9819997 90.894,33.042 C90.5779984,33.1020003 90.2640016,33.132 89.952,33.132 C89.6079983,33.132 89.2800016,33.0960004 88.968,33.024 C88.6559984,32.9519996 88.3800012,32.8340008 88.14,32.67 C87.8999988,32.5059992 87.7080007,32.2900013 87.564,32.022 C87.4199993,31.7539987 87.3400001,31.4280019 87.324,31.044 L88.344,31.044 Z"/>
  </g>
</svg>
